<?xml version="1.0" encoding="UTF-8"?>
<!DOCTYPE svg PUBLIC "-//W3C//DTD SVG 1.1//EN" "http://www.w3.org/Graphics/SVG/1.1/DTD/svg11.dtd">
<!-- Creator: CorelDRAW -->
<svg xmlns="http://www.w3.org/2000/svg" xml:space="preserve" width="48px" height="48px" version="1.1" style="shape-rendering:geometricPrecision; text-rendering:geometricPrecision; image-rendering:optimizeQuality; fill-rule:evenodd; clip-rule:evenodd"
viewBox="0 0 48 48"
 xmlns:xlink="http://www.w3.org/1999/xlink"
 xmlns:xodm="http://www.corel.com/coreldraw/odm/2003">
 <defs>
  <style type="text/css">
   <![CDATA[
    .fil0 {fill:#FFCC29}
    .fil1 {fill:#1F1F1F}
   ]]>
  </style>
 </defs>
 <g id="Camada_x0020_1">
  <metadata id="CorelCorpID_0Corel-Layer"/>
  <g id="_1676170843264">
   <polygon class="fil0" points="24.14,19.23 25.54,16.78 26.94,14.33 24.14,14.33 21.34,14.33 22.74,16.78 "/>
   <path class="fil1" d="M26.95 29.23l-2.95 -5.15 -2.95 5.15 2.95 5.16 2.95 -5.16zm-4.2 -7.34l-2.45 -4.28 -1.88 -3.28 -5.62 0 1.26 2.2 5.88 10.27 2.81 -4.91zm2.5 14.69l2.81 4.91 7.77 -13.58 7.77 -13.58 -5.62 0 -12.73 22.25z"/>
   <polygon class="fil1" points="19.94,31.19 12.17,17.61 10.3,14.33 4.4,14.33 12.17,27.91 19.94,41.49 27.7,27.91 35.47,14.33 29.58,14.33 27.7,17.61 "/>
   <polygon class="fil0" points="48,6.51 0,6.51 3.13,11.98 44.87,11.98 "/>
  </g>
 </g>
</svg>
