<?xml version="1.0" encoding="UTF-8"?>
<!DOCTYPE svg PUBLIC "-//W3C//DTD SVG 1.1//EN" "http://www.w3.org/Graphics/SVG/1.1/DTD/svg11.dtd">
<!-- Creator: CorelDRAW -->
<svg xmlns="http://www.w3.org/2000/svg" xml:space="preserve" width="128px" height="50px" version="1.1" style="shape-rendering:geometricPrecision; text-rendering:geometricPrecision; image-rendering:optimizeQuality; fill-rule:evenodd; clip-rule:evenodd"
viewBox="0 0 128 49.89"
 xmlns:xlink="http://www.w3.org/1999/xlink"
 xmlns:xodm="http://www.corel.com/coreldraw/odm/2003">
 <defs>
  <style type="text/css">
   <![CDATA[
    .fil3 {fill:none}
    .fil2 {fill:#FEFEFE}
    .fil1 {fill:#FFCC29}
    .fil0 {fill:#FFCC29;fill-rule:nonzero}
   ]]>
  </style>
    <clipPath id="id0">
     <path d="M4.09 38.52c-0.24,-1.31 -0.5,-2.63 -0.73,-3.95 -0.23,-1.32 -0.48,-2.64 -0.7,-3.97 -1.18,0 -2.35,0 -3.51,0 0.55,2.58 1.12,5.14 1.67,7.69 0.55,2.54 1.13,5.07 1.69,7.59 0.94,-0.05 1.89,-0.1 2.83,-0.16 0.17,-1.14 0.35,-2.28 0.51,-3.41 0.17,-1.14 0.35,-2.28 0.53,-3.41 0.17,1.12 0.35,2.24 0.51,3.36 0.17,1.12 0.36,2.23 0.54,3.35 0.93,-0.05 1.88,-0.1 2.83,-0.14 0.55,-2.5 1.12,-4.99 1.67,-7.47 0.55,-2.48 1.13,-4.94 1.69,-7.4 -1.17,0 -2.34,0 -3.5,0 -0.25,1.3 -0.5,2.59 -0.73,3.89 -0.23,1.3 -0.48,2.6 -0.71,3.91 -0.19,-1.3 -0.38,-2.6 -0.56,-3.89 -0.18,-1.3 -0.37,-2.6 -0.55,-3.91 -0.79,0 -1.59,0 -2.37,0 -0.19,1.32 -0.38,2.64 -0.56,3.96 -0.18,1.31 -0.37,2.64 -0.55,3.96zm115.07 -6.38c-0.3,0.29 -0.45,0.64 -0.45,1.07 0,1.82 0,3.63 0,5.45 0,1.81 0,3.63 0,5.44 0,0.43 0.15,0.79 0.45,1.1 0.29,0.3 0.67,0.46 1.1,0.49 1.77,0.09 3.55,0.19 5.32,0.29 0.45,0.03 0.82,-0.1 1.12,-0.38 0.29,-0.28 0.45,-0.64 0.45,-1.08 0,-1.87 0,-3.74 0,-5.61 0,-1.88 0,-3.75 0,-5.62 0,-0.44 -0.16,-0.81 -0.45,-1.11 -0.3,-0.29 -0.67,-0.44 -1.12,-0.44 -1.77,-0.01 -3.55,-0.02 -5.32,-0.03 -0.43,0 -0.81,0.14 -1.1,0.43zm3.02 6.61c0,-1.33 0,-2.66 0,-3.99 0,-0.2 0.1,-0.31 0.31,-0.3 0.28,0 0.57,0 0.87,0.01 0.21,0 0.32,0.11 0.32,0.32 0,1.34 0,2.68 0,4.01 0,1.34 0,2.68 0,4.02 0,0.21 -0.11,0.31 -0.32,0.3 -0.3,-0.01 -0.59,-0.03 -0.87,-0.04 -0.21,-0.01 -0.31,-0.13 -0.31,-0.35 0,-1.33 0,-2.66 0,-3.98zm-12.6 -6.66c-0.29,0.28 -0.43,0.63 -0.43,1.04 0,1.76 0,3.53 0,5.29 0,1.76 0,3.52 0,5.28 0,0.41 0.14,0.76 0.43,1.05 0.3,0.3 0.67,0.45 1.12,0.47 1.76,0.08 3.54,0.17 5.32,0.25 0.44,0.02 0.81,-0.1 1.1,-0.37 0.3,-0.27 0.45,-0.62 0.45,-1.05 0,-0.71 0,-1.43 0,-2.14 0,-0.72 0,-1.43 0,-2.15 -1.15,-0.03 -2.3,-0.07 -3.45,-0.1 0,0.92 0,1.84 0,2.76 0,0.2 -0.12,0.3 -0.32,0.29 -0.3,-0.01 -0.59,-0.02 -0.87,-0.03 -0.22,-0.01 -0.32,-0.11 -0.32,-0.32 0,-1.28 0,-2.57 0,-3.86 0,-1.29 0,-2.58 0,-3.87 0,-0.2 0.1,-0.3 0.32,-0.3 0.28,0.01 0.57,0.01 0.87,0.01 0.2,0.01 0.32,0.11 0.32,0.31 0,0.93 0,1.86 0,2.79 1.15,0.02 2.3,0.05 3.45,0.08 0,-0.72 0,-1.44 0,-2.16 0,-0.72 0,-1.44 0,-2.16 0,-0.42 -0.15,-0.78 -0.45,-1.07 -0.29,-0.28 -0.66,-0.43 -1.1,-0.43 -1.78,-0.01 -3.56,-0.01 -5.32,-0.02 -0.45,0 -0.82,0.14 -1.12,0.41zm-9.98 -0.44c0,1.95 0,3.9 0,5.85 0,1.95 0,3.9 0,5.85 0,0.4 0.14,0.75 0.45,1.04 0.3,0.28 0.65,0.44 1.1,0.45 1.77,0.06 3.53,0.13 5.31,0.2 0.44,0.02 0.81,-0.1 1.1,-0.38 0.3,-0.27 0.45,-0.61 0.45,-1.02 0,-2 0,-3.99 0,-5.99 0,-1.99 0,-3.98 0,-5.98 -1.16,0 -2.32,-0.01 -3.47,-0.01 0,1.74 0,3.47 0,5.21 0,1.73 0,3.47 0,5.2 0,0.18 -0.05,0.28 -0.15,0.28 -0.09,0.01 -0.16,0.01 -0.17,0.01 -0.28,-0.01 -0.56,-0.02 -0.84,-0.03 -0.02,0 -0.07,-0.01 -0.17,-0.02 -0.1,-0.01 -0.15,-0.11 -0.15,-0.29 0,-1.72 0,-3.45 0,-5.18 0,-1.72 0,-3.46 0,-5.18 -1.16,-0.01 -2.31,-0.01 -3.46,-0.01zm-9.55 -0.02c0,2.14 0,4.29 0,6.44 0,2.14 0,4.29 0,6.44 2.28,0.06 4.57,0.12 6.86,0.19 0.44,0.01 0.81,-0.11 1.1,-0.37 0.3,-0.26 0.45,-0.59 0.45,-0.99 0,-1.03 0,-2.06 0,-3.09 0,-0.41 -0.08,-0.81 -0.27,-1.17 -0.18,-0.37 -0.43,-0.68 -0.75,-0.95 0.27,-0.26 0.49,-0.55 0.65,-0.88 0.16,-0.33 0.23,-0.69 0.23,-1.08 0,-1.04 0,-2.07 0,-3.11 0,-0.39 -0.15,-0.73 -0.45,-1 -0.3,-0.28 -0.68,-0.42 -1.1,-0.42 -2.24,0 -4.48,-0.01 -6.72,-0.01zm3.47 5.3c0,-0.93 0,-1.85 0,-2.78 0.33,0 0.68,0 1.03,0.01 0.2,0 0.31,0.09 0.31,0.29 0,0.73 0,1.47 0,2.21 0,0.19 -0.11,0.29 -0.31,0.28 -0.35,0 -0.7,0 -1.03,-0.01zm0 2.39c0.39,0.01 0.77,0.02 1.15,0.02 0.22,0 0.32,0.1 0.32,0.29 0,0.74 0,1.47 0,2.2 0,0.19 -0.1,0.28 -0.32,0.28 -0.38,-0.01 -0.76,-0.02 -1.15,-0.03 0,-0.92 0,-1.84 0,-2.76zm-10.92 -7.7c-0.59,2.12 -1.17,4.23 -1.76,6.34 -0.59,2.11 -1.18,4.22 -1.77,6.32 1.19,0.02 2.38,0.05 3.58,0.07 0.13,-0.75 0.26,-1.51 0.39,-2.26 0.74,0.01 1.48,0.02 2.22,0.03 0.13,0.76 0.26,1.52 0.4,2.28 1.19,0.02 2.4,0.06 3.6,0.09 -0.59,-2.16 -1.18,-4.31 -1.77,-6.46 -0.59,-2.14 -1.18,-4.28 -1.76,-6.41 -1.05,0 -2.09,0 -3.13,0zm0.87 8.1c0.12,-0.67 0.23,-1.35 0.35,-2.03 0.11,-0.68 0.23,-1.36 0.36,-2.04 0.1,0.69 0.23,1.37 0.33,2.05 0.1,0.68 0.23,1.36 0.35,2.04 -0.46,-0.01 -0.93,-0.01 -1.39,-0.02zm-13.6 -8.12c0,2.1 0,4.2 0,6.29 0,2.1 0,4.2 0,6.29 1.15,0.01 2.3,0.02 3.47,0.04 0,-0.89 0,-1.78 0,-2.67 0,-0.89 0,-1.78 0,-2.67 0.2,0 0.42,0.01 0.64,0.01 0.17,0.89 0.37,1.78 0.55,2.67 0.17,0.89 0.37,1.79 0.56,2.67 1.18,0.02 2.35,0.03 3.53,0.05 -0.29,-0.91 -0.59,-1.81 -0.87,-2.71 -0.28,-0.9 -0.57,-1.8 -0.86,-2.7 0.39,-0.05 0.72,-0.18 0.99,-0.37 0.27,-0.19 0.4,-0.51 0.4,-0.95 0,-0.76 0,-1.52 0,-2.29 0,-0.76 0,-1.52 0,-2.28 0,-0.39 -0.15,-0.71 -0.45,-0.98 -0.3,-0.26 -0.67,-0.39 -1.1,-0.39 -2.29,0 -4.58,0 -6.86,-0.01zm3.47 4.84c0,-0.8 0,-1.59 0,-2.39 0.38,0 0.76,0 1.16,0.01 0.2,0 0.32,0.09 0.32,0.28 0,0.61 0,1.22 0,1.82 0,0.19 -0.12,0.28 -0.32,0.28 -0.4,0 -0.78,0 -1.16,0zm-10.09 -3.4c0,1.85 0,3.71 0,5.56 0,1.85 0,3.71 0,5.56 1.15,0 2.3,0.01 3.46,0.01 0,-1.85 0,-3.71 0,-5.56 0,-1.86 0,-3.71 0,-5.57 0.74,0 1.49,0 2.25,0 0,-0.81 0,-1.63 0,-2.44 -2.66,0 -5.33,0 -7.98,0 0,0.81 0,1.63 0,2.44 0.76,0 1.51,0 2.27,0zm-11.79 2.41c0.62,1.28 1.23,2.56 1.86,3.83 0,0.82 0,1.65 0,2.47 0,0.82 0,1.64 0,2.46 1.14,-0.01 2.28,-0.02 3.41,-0.03 0,-0.81 0,-1.63 0,-2.45 0,-0.82 0,-1.64 0,-2.46 0.62,-1.28 1.23,-2.56 1.85,-3.84 0.61,-1.27 1.23,-2.55 1.84,-3.83 -1.19,0 -2.38,0 -3.56,0 -0.31,0.83 -0.61,1.65 -0.92,2.48 -0.31,0.82 -0.61,1.64 -0.92,2.47 -0.31,-0.83 -0.62,-1.65 -0.92,-2.47 -0.31,-0.82 -0.62,-1.65 -0.92,-2.47 -1.19,0 -2.38,0 -3.56,0 0.61,1.28 1.23,2.56 1.84,3.84zm-8.97 -3.83c0,2.12 0,4.25 0,6.37 0,2.13 0,4.25 0,6.37 2.19,-0.04 4.38,-0.08 6.56,-0.1 0,-0.82 0,-1.64 0,-2.45 -1.03,0.01 -2.07,0.02 -3.09,0.03 0,-0.92 0,-1.84 0,-2.76 0.69,-0.01 1.38,-0.02 2.07,-0.02 0,-0.75 0,-1.5 0,-2.26 -0.69,0.01 -1.38,0.01 -2.07,0.02 0,-0.92 0,-1.83 0,-2.75 1.02,0 2.06,0 3.09,-0.01 0,-0.81 0,-1.63 0,-2.45 -2.18,0 -4.37,0 -6.56,0.01zm-6.95 0.01c0,2.15 0,4.3 0,6.45 0,2.14 0,4.29 0,6.44 2.01,-0.05 4.02,-0.1 6.04,-0.14 0,-0.82 0,-1.65 0,-2.47 -0.86,0.01 -1.72,0.02 -2.57,0.04 0,-1.72 0,-3.44 0,-5.16 0,-1.72 0,-3.45 0,-5.17 -1.17,0 -2.32,0.01 -3.47,0.01zm-6.94 0.01c0,2.18 0,4.36 0,6.54 0,2.18 0,4.36 0,6.54 2.01,-0.07 4.02,-0.12 6.03,-0.17 0,-0.84 0,-1.67 0,-2.51 -0.86,0.02 -1.72,0.04 -2.57,0.06 0,-1.75 0,-3.49 0,-5.23 0,-1.75 0,-3.49 0,-5.23 -1.16,0 -2.31,0 -3.46,0zm-9.57 1.48c0,0.92 0,1.85 0,2.77 0,0.33 0.07,0.63 0.23,0.9 0.15,0.27 0.35,0.53 0.61,0.74 1.27,1.04 2.57,2.04 3.85,3.06 0.19,0.16 0.27,0.35 0.27,0.55 0,0.29 0,0.59 0,0.88 0,0.19 -0.1,0.3 -0.32,0.3 -0.29,0.01 -0.57,0.02 -0.86,0.03 -0.21,0 -0.32,-0.09 -0.32,-0.29 0,-0.5 0,-1 0,-1.5 -1.16,0.04 -2.31,0.07 -3.46,0.1 0,0.99 0,1.98 0,2.96 0,0.42 0.15,0.76 0.44,1.02 0.3,0.27 0.67,0.39 1.1,0.37 1.78,-0.07 3.56,-0.14 5.34,-0.2 0.44,-0.01 0.81,-0.16 1.1,-0.44 0.3,-0.28 0.45,-0.62 0.45,-1.03 0,-0.89 0,-1.79 0,-2.69 0,-0.32 -0.08,-0.61 -0.23,-0.88 -0.15,-0.27 -0.35,-0.52 -0.61,-0.73 -1.29,-1.02 -2.58,-2.03 -3.86,-3.06 -0.18,-0.15 -0.27,-0.33 -0.27,-0.54 0,-0.31 0,-0.61 0,-0.91 0,-0.2 0.11,-0.3 0.32,-0.3 0.29,0 0.57,-0.01 0.86,-0.01 0.22,0 0.32,0.1 0.32,0.29 0,0.5 0,1 0,1.5 1.15,-0.02 2.31,-0.03 3.47,-0.05 0,-0.96 0,-1.93 0,-2.9 0,-0.4 -0.15,-0.74 -0.45,-1.01 -0.29,-0.27 -0.66,-0.4 -1.1,-0.4 -1.78,0 -3.56,0.01 -5.34,0.01 -0.43,0.01 -0.8,0.14 -1.1,0.42 -0.29,0.28 -0.44,0.63 -0.44,1.04zm-4.6 -1.44c0,2.27 0,4.53 0,6.8 0,2.26 0,4.52 0,6.79 1.15,-0.06 2.31,-0.1 3.46,-0.15 0,-2.24 0,-4.48 0,-6.72 0,-2.24 0,-4.49 0,-6.73 -1.15,0.01 -2.31,0.01 -3.46,0.01z"/>
    </clipPath>
 </defs>
 <g id="Camada_x0020_1">
  <metadata id="CorelCorpID_0Corel-Layer"/>
  <g id="_2388205744528">
   <polygon class="fil0" points="30.28,49.17 30.27,46.98 30.68,46.98 30.68,49.17 "/>
   <polygon id="_1" class="fil0" points="31.27,49.17 31.27,46.98 31.61,46.98 32.57,48.58 32.39,48.58 33.34,46.98 33.67,46.98 33.68,49.17 33.29,49.17 33.29,47.58 33.37,47.58 32.57,48.92 32.38,48.92 31.57,47.58 31.66,47.58 31.66,49.17 "/>
   <path id="_2" class="fil0" d="M34.27 49.17l0 -2.19 0.9 0c0.2,0 0.36,0.03 0.5,0.09 0.14,0.06 0.25,0.15 0.32,0.27 0.08,0.12 0.12,0.25 0.12,0.42 0,0.16 -0.04,0.3 -0.12,0.41 -0.07,0.12 -0.18,0.21 -0.32,0.27 -0.14,0.07 -0.3,0.1 -0.5,0.1l-0.67 0 0.18 -0.19 0 0.82 -0.41 0zm0.41 -0.78l-0.18 -0.2 0.65 0c0.18,0 0.32,-0.04 0.41,-0.11 0.09,-0.08 0.14,-0.19 0.14,-0.32 0,-0.14 -0.05,-0.25 -0.14,-0.33 -0.09,-0.07 -0.23,-0.11 -0.41,-0.11l-0.65 0 0.18 -0.2 0 1.27z"/>
   <polygon id="_3" class="fil0" points="36.52,49.17 36.51,46.98 36.92,46.98 36.92,48.83 38.07,48.83 38.07,49.17 "/>
   <path id="_4" class="fil0" d="M38.4 49.17l-0.01 -2.19 1.6 0 0.01 0.34 -1.2 -0.01 0 1.52 1.24 0 0 0.34 -1.64 0zm0.37 -0.95l0 -0.33 1.09 0 0 0.33 -1.09 0z"/>
   <polygon id="_5" class="fil0" points="40.49,49.17 40.49,46.98 40.83,46.98 41.79,48.58 41.61,48.58 42.56,46.98 42.89,46.98 42.9,49.17 42.51,49.17 42.51,47.58 42.59,47.58 41.79,48.92 41.6,48.92 40.79,47.58 40.88,47.58 40.88,49.17 "/>
   <path id="_6" class="fil0" d="M43.49 49.17l0 -2.19 1.6 0 0 0.34 -1.2 -0.01 0.01 1.52 1.23 0 0 0.34 -1.64 0zm0.37 -0.95l0 -0.33 1.09 0 0.01 0.33 -1.1 0z"/>
   <polygon id="_7" class="fil0" points="45.59,49.17 45.59,46.98 45.93,46.98 47.3,48.67 47.14,48.67 47.14,46.98 47.54,46.98 47.54,49.17 47.2,49.17 45.83,47.48 45.99,47.48 45.99,49.17 "/>
   <polygon id="_8" class="fil0" points="48.58,49.17 48.57,47.32 47.85,47.32 47.85,46.98 49.71,46.98 49.71,47.32 48.98,47.32 48.98,49.17 "/>
   <path id="_9" class="fil0" d="M49.6 49.17l0.98 -2.19 0.41 0 0.99 2.19 -0.43 0 -0.85 -1.98 0.16 0 -0.84 1.98 -0.42 0zm0.45 -0.51l0.11 -0.32 1.19 0 0.11 0.32 -1.41 0z"/>
   <path id="_10" class="fil0" d="M53.24 49.2c-0.17,0 -0.32,-0.03 -0.47,-0.08 -0.14,-0.06 -0.26,-0.13 -0.37,-0.24 -0.1,-0.1 -0.19,-0.22 -0.24,-0.36 -0.06,-0.13 -0.09,-0.28 -0.09,-0.45 0,-0.16 0.03,-0.31 0.09,-0.45 0.05,-0.14 0.14,-0.26 0.24,-0.36 0.11,-0.1 0.23,-0.18 0.38,-0.23 0.14,-0.06 0.29,-0.09 0.46,-0.09 0.18,0 0.35,0.04 0.5,0.1 0.14,0.06 0.27,0.15 0.37,0.27l-0.26 0.25c-0.08,-0.09 -0.17,-0.15 -0.27,-0.19 -0.1,-0.05 -0.2,-0.07 -0.32,-0.07 -0.11,0 -0.22,0.02 -0.31,0.06 -0.1,0.04 -0.18,0.09 -0.25,0.16 -0.07,0.07 -0.12,0.15 -0.16,0.24 -0.04,0.1 -0.06,0.2 -0.06,0.31 0,0.12 0.02,0.22 0.06,0.31 0.04,0.1 0.09,0.18 0.16,0.25 0.07,0.07 0.15,0.12 0.25,0.16 0.09,0.04 0.2,0.05 0.31,0.05 0.12,0 0.22,-0.02 0.32,-0.06 0.1,-0.04 0.19,-0.11 0.27,-0.2l0.26 0.25c-0.1,0.12 -0.23,0.22 -0.37,0.28 -0.15,0.06 -0.32,0.09 -0.5,0.09zm-0.11 0.69c-0.06,0 -0.11,-0.01 -0.16,-0.02 -0.04,-0.01 -0.09,-0.03 -0.13,-0.05l0.07 -0.19c0.04,0.02 0.07,0.03 0.11,0.04 0.03,0.01 0.07,0.01 0.11,0.01 0.06,0 0.1,-0.01 0.13,-0.03 0.02,-0.02 0.03,-0.04 0.03,-0.08 0,-0.03 -0.01,-0.05 -0.04,-0.07 -0.02,-0.02 -0.06,-0.03 -0.12,-0.03l-0.1 0 0.08 -0.32 0.22 0 -0.05 0.17c0.1,0.01 0.16,0.04 0.21,0.09 0.04,0.05 0.07,0.11 0.07,0.18 0,0.09 -0.04,0.16 -0.12,0.22 -0.08,0.05 -0.18,0.08 -0.31,0.08z"/>
   <path id="_11" class="fil0" d="M54.12 49.17l0.99 -2.19 0.4 0 0.99 2.19 -0.43 0 -0.85 -1.98 0.17 0 -0.85 1.98 -0.42 0zm0.45 -0.51l0.11 -0.32 1.19 0 0.11 0.32 -1.41 0zm0.98 -1.85c-0.05,0 -0.1,-0.01 -0.15,-0.03 -0.04,-0.03 -0.08,-0.05 -0.11,-0.08 -0.04,-0.03 -0.07,-0.05 -0.11,-0.08 -0.03,-0.02 -0.06,-0.03 -0.1,-0.03 -0.04,0 -0.08,0.02 -0.11,0.06 -0.02,0.04 -0.04,0.09 -0.04,0.14l-0.23 0c0,-0.13 0.04,-0.23 0.1,-0.32 0.06,-0.08 0.15,-0.13 0.26,-0.13 0.06,0 0.11,0.02 0.15,0.04 0.05,0.02 0.09,0.05 0.12,0.08 0.03,0.02 0.07,0.05 0.1,0.07 0.04,0.02 0.07,0.03 0.1,0.03 0.05,0 0.08,-0.02 0.11,-0.05 0.03,-0.04 0.04,-0.09 0.04,-0.14l0.23 0c-0.01,0.13 -0.04,0.23 -0.1,0.32 -0.06,0.08 -0.15,0.12 -0.26,0.12z"/>
   <path id="_12" class="fil0" d="M57.77 49.2c-0.17,0 -0.32,-0.03 -0.47,-0.08 -0.14,-0.06 -0.27,-0.14 -0.38,-0.24 -0.1,-0.1 -0.18,-0.22 -0.24,-0.36 -0.06,-0.14 -0.09,-0.29 -0.09,-0.45 0,-0.16 0.03,-0.31 0.09,-0.45 0.05,-0.13 0.14,-0.25 0.25,-0.35 0.1,-0.11 0.23,-0.18 0.37,-0.24 0.15,-0.05 0.3,-0.08 0.47,-0.09 0.17,0 0.33,0.03 0.47,0.09 0.15,0.05 0.27,0.13 0.38,0.23 0.1,0.11 0.18,0.23 0.24,0.36 0.06,0.14 0.09,0.29 0.09,0.45 0,0.17 -0.03,0.32 -0.08,0.45 -0.06,0.14 -0.15,0.26 -0.25,0.36 -0.11,0.1 -0.23,0.18 -0.38,0.24 -0.14,0.05 -0.3,0.08 -0.47,0.08zm0 -0.35c0.11,0 0.21,-0.02 0.31,-0.06 0.09,-0.04 0.17,-0.09 0.24,-0.16 0.07,-0.07 0.13,-0.15 0.16,-0.25 0.04,-0.09 0.06,-0.19 0.07,-0.31 -0.01,-0.11 -0.03,-0.21 -0.06,-0.31 -0.04,-0.09 -0.1,-0.17 -0.17,-0.24 -0.06,-0.07 -0.15,-0.13 -0.24,-0.17 -0.09,-0.03 -0.2,-0.05 -0.31,-0.05 -0.11,0 -0.21,0.02 -0.31,0.06 -0.09,0.03 -0.17,0.09 -0.24,0.16 -0.07,0.07 -0.13,0.15 -0.17,0.24 -0.03,0.1 -0.05,0.2 -0.05,0.31 0,0.11 0.02,0.22 0.06,0.31 0.03,0.1 0.09,0.18 0.16,0.25 0.07,0.07 0.15,0.12 0.24,0.16 0.1,0.04 0.2,0.06 0.31,0.06z"/>
   <path id="_13" class="fil0" d="M60.26 49.17l-0.01 -2.19 1.6 0 0 0.34 -1.19 -0.01 0 1.52 1.23 0 0.01 0.34 -1.64 0zm0.36 -0.95l0.01 -0.33 1.09 0 0 0.33 -1.1 0z"/>
   <path id="_14" class="fil0" d="M63.22 49.17l0 -2.19 0.96 0c0.24,0 0.44,0.04 0.62,0.13 0.18,0.09 0.32,0.22 0.42,0.39 0.1,0.16 0.16,0.35 0.16,0.57 0,0.22 -0.06,0.41 -0.16,0.58 -0.1,0.16 -0.24,0.29 -0.42,0.38 -0.18,0.09 -0.38,0.14 -0.62,0.14l-0.96 0zm0.41 -0.34l0.53 0c0.16,0 0.3,-0.04 0.42,-0.1 0.13,-0.06 0.22,-0.15 0.28,-0.26 0.07,-0.11 0.1,-0.25 0.1,-0.4 0,-0.15 -0.03,-0.28 -0.1,-0.39 -0.06,-0.12 -0.15,-0.2 -0.28,-0.27 -0.12,-0.06 -0.26,-0.09 -0.42,-0.09l-0.53 0 0 1.51z"/>
   <path id="_15" class="fil0" d="M65.81 49.17l0 -2.19 1.6 0 0 0.34 -1.2 -0.01 0.01 1.52 1.23 0 0 0.34 -1.64 0zm0.37 -0.95l0 -0.33 1.09 0 0 0.33 -1.09 0z"/>
   <path id="_16" class="fil0" d="M68.59 49.2c-0.17,0 -0.34,-0.02 -0.49,-0.07 -0.16,-0.05 -0.28,-0.11 -0.38,-0.19l0.15 -0.32c0.08,0.07 0.19,0.13 0.32,0.17 0.13,0.05 0.26,0.07 0.4,0.07 0.11,0 0.21,-0.01 0.28,-0.03 0.07,-0.03 0.12,-0.06 0.15,-0.11 0.04,-0.04 0.06,-0.09 0.06,-0.14 0,-0.07 -0.03,-0.12 -0.08,-0.16 -0.04,-0.04 -0.11,-0.08 -0.18,-0.1 -0.08,-0.03 -0.16,-0.05 -0.26,-0.07 -0.09,-0.02 -0.18,-0.04 -0.28,-0.07 -0.09,-0.03 -0.17,-0.07 -0.25,-0.11 -0.08,-0.05 -0.14,-0.11 -0.19,-0.18 -0.05,-0.08 -0.07,-0.17 -0.07,-0.29 0,-0.12 0.03,-0.23 0.1,-0.33 0.06,-0.1 0.16,-0.18 0.29,-0.24 0.13,-0.06 0.29,-0.09 0.49,-0.09 0.14,0 0.27,0.02 0.4,0.05 0.13,0.04 0.24,0.09 0.34,0.15l-0.13 0.31c-0.1,-0.05 -0.2,-0.1 -0.31,-0.12 -0.1,-0.03 -0.2,-0.05 -0.3,-0.05 -0.11,0 -0.2,0.02 -0.27,0.04 -0.07,0.03 -0.12,0.07 -0.16,0.11 -0.03,0.04 -0.04,0.09 -0.04,0.15 0,0.07 0.02,0.12 0.07,0.16 0.04,0.04 0.1,0.08 0.18,0.1 0.08,0.02 0.16,0.04 0.26,0.06 0.09,0.03 0.18,0.05 0.28,0.08 0.09,0.03 0.18,0.06 0.25,0.11 0.08,0.04 0.14,0.1 0.19,0.17 0.04,0.08 0.07,0.18 0.07,0.29 0,0.12 -0.03,0.22 -0.1,0.32 -0.06,0.1 -0.16,0.18 -0.29,0.24 -0.13,0.06 -0.3,0.09 -0.5,0.09z"/>
   <path id="_17" class="fil0" d="M69.89 49.17l-0.01 -2.19 1.6 0 0 0.34 -1.19 -0.01 0 1.52 1.23 0 0.01 0.34 -1.64 0zm0.37 -0.95l0 -0.33 1.09 0 0 0.33 -1.09 0z"/>
   <polygon id="_18" class="fil0" points="71.99,49.17 71.98,46.98 72.32,46.98 73.7,48.67 73.53,48.67 73.53,46.98 73.93,46.98 73.93,49.17 73.6,49.17 72.22,47.48 72.39,47.48 72.39,49.17 "/>
   <polygon id="_19" class="fil0" points="75.12,49.17 74.17,46.98 74.61,46.98 75.46,48.96 75.21,48.96 76.07,46.98 76.48,46.98 75.53,49.17 "/>
   <path id="_20" class="fil0" d="M77.71 49.2c-0.16,0 -0.32,-0.03 -0.46,-0.08 -0.15,-0.06 -0.27,-0.14 -0.38,-0.24 -0.11,-0.1 -0.19,-0.22 -0.25,-0.36 -0.05,-0.14 -0.08,-0.29 -0.08,-0.45 0,-0.16 0.02,-0.31 0.08,-0.45 0.06,-0.13 0.14,-0.25 0.25,-0.35 0.11,-0.11 0.24,-0.18 0.38,-0.24 0.14,-0.05 0.3,-0.08 0.47,-0.09 0.17,0 0.33,0.03 0.47,0.09 0.14,0.05 0.27,0.13 0.37,0.23 0.11,0.11 0.19,0.23 0.25,0.36 0.06,0.14 0.09,0.29 0.09,0.45 0,0.17 -0.03,0.32 -0.09,0.45 -0.06,0.14 -0.14,0.26 -0.25,0.36 -0.1,0.1 -0.23,0.18 -0.37,0.24 -0.14,0.05 -0.3,0.08 -0.48,0.08zm0 -0.35c0.12,0 0.22,-0.02 0.31,-0.06 0.1,-0.04 0.18,-0.09 0.25,-0.16 0.07,-0.07 0.12,-0.15 0.16,-0.25 0.04,-0.09 0.06,-0.19 0.06,-0.31 0,-0.11 -0.02,-0.21 -0.06,-0.31 -0.04,-0.09 -0.09,-0.17 -0.16,-0.24 -0.07,-0.07 -0.15,-0.13 -0.24,-0.17 -0.1,-0.03 -0.2,-0.05 -0.32,-0.05 -0.1,0 -0.21,0.02 -0.3,0.06 -0.09,0.03 -0.18,0.09 -0.25,0.16 -0.07,0.07 -0.12,0.15 -0.16,0.24 -0.04,0.1 -0.06,0.2 -0.06,0.31 0.01,0.11 0.03,0.22 0.06,0.31 0.04,0.1 0.09,0.18 0.16,0.25 0.07,0.07 0.16,0.12 0.25,0.16 0.09,0.04 0.2,0.06 0.3,0.06z"/>
   <polygon id="_21" class="fil0" points="79.34,49.17 79.33,46.98 79.74,46.98 79.74,48.83 80.88,48.83 80.89,49.17 "/>
   <polygon id="_22" class="fil0" points="81.7,49.17 80.74,46.98 81.19,46.98 82.04,48.96 81.79,48.96 82.65,46.98 83.06,46.98 82.11,49.17 "/>
   <polygon id="_23" class="fil0" points="83.3,49.17 83.29,46.98 83.7,46.98 83.7,49.17 "/>
   <polygon id="_24" class="fil0" points="84.29,49.17 84.29,46.98 84.63,46.98 85.59,48.58 85.41,48.58 86.36,46.98 86.69,46.98 86.7,49.17 86.31,49.17 86.31,47.58 86.39,47.58 85.59,48.92 85.4,48.92 84.59,47.58 84.68,47.58 84.68,49.17 "/>
   <path id="_25" class="fil0" d="M87.29 49.17l0 -2.19 1.6 0 0 0.34 -1.2 -0.01 0.01 1.52 1.23 0 0 0.34 -1.64 0zm0.37 -0.95l0 -0.33 1.09 0 0.01 0.33 -1.1 0z"/>
   <polygon id="_26" class="fil0" points="89.39,49.17 89.39,46.98 89.73,46.98 91.1,48.67 90.94,48.67 90.94,46.98 91.34,46.98 91.34,49.17 91.01,49.17 89.63,47.48 89.79,47.48 89.79,49.17 "/>
   <polygon id="_27" class="fil0" points="92.38,49.17 92.37,47.32 91.65,47.32 91.65,46.98 93.51,46.98 93.51,47.32 92.78,47.32 92.78,49.17 "/>
   <path id="_28" class="fil0" d="M94.81 49.2c-0.17,0 -0.32,-0.03 -0.47,-0.08 -0.14,-0.06 -0.27,-0.14 -0.38,-0.24 -0.1,-0.1 -0.18,-0.22 -0.24,-0.36 -0.06,-0.14 -0.09,-0.29 -0.09,-0.45 0,-0.16 0.03,-0.31 0.09,-0.45 0.05,-0.13 0.14,-0.25 0.25,-0.35 0.1,-0.11 0.23,-0.18 0.37,-0.24 0.15,-0.05 0.3,-0.08 0.47,-0.09 0.17,0 0.33,0.03 0.47,0.09 0.15,0.05 0.27,0.13 0.38,0.23 0.1,0.11 0.18,0.23 0.24,0.36 0.06,0.14 0.09,0.29 0.09,0.45 0,0.17 -0.03,0.32 -0.08,0.45 -0.06,0.14 -0.15,0.26 -0.25,0.36 -0.11,0.1 -0.23,0.18 -0.38,0.24 -0.14,0.05 -0.3,0.08 -0.47,0.08zm0 -0.35c0.11,0 0.21,-0.02 0.31,-0.06 0.09,-0.04 0.17,-0.09 0.24,-0.16 0.07,-0.07 0.13,-0.15 0.16,-0.25 0.04,-0.09 0.06,-0.19 0.07,-0.31 -0.01,-0.11 -0.03,-0.21 -0.06,-0.31 -0.04,-0.09 -0.1,-0.17 -0.17,-0.24 -0.07,-0.07 -0.15,-0.13 -0.24,-0.17 -0.09,-0.03 -0.2,-0.05 -0.31,-0.05 -0.11,0 -0.21,0.02 -0.31,0.06 -0.09,0.03 -0.17,0.09 -0.24,0.16 -0.07,0.07 -0.13,0.15 -0.17,0.24 -0.04,0.1 -0.05,0.2 -0.05,0.31 0,0.11 0.02,0.22 0.06,0.31 0.03,0.1 0.09,0.18 0.16,0.25 0.07,0.07 0.15,0.12 0.24,0.16 0.1,0.04 0.2,0.06 0.31,0.06z"/>
   <polygon class="fil1" points="63.25,9.86 64.34,7.96 65.42,6.06 63.25,6.06 61.08,6.06 62.17,7.96 "/>
   <path class="fil2" d="M65.43 17.61l-2.28 -3.99 -2.29 3.99 2.29 3.99 2.28 -3.99zm-3.26 -5.69l-1.89 -3.32 -1.45 -2.54 -4.36 0 0.97 1.7 4.56 7.97 2.17 -3.81zm1.95 11.38l2.18 3.81 6.01 -10.53 6.02 -10.52 -4.35 0 -9.86 17.24z"/>
   <polygon class="fil2" points="60,19.12 53.98,8.6 52.53,6.06 47.96,6.06 53.98,16.58 60,27.11 66.02,16.58 72.03,6.06 67.47,6.06 66.02,8.6 "/>
   <polygon class="fil1" points="81.75,0 44.55,0 46.97,4.24 79.32,4.24 "/>
   <path class="fil2" d="M4.09 38.52c-0.24,-1.31 -0.5,-2.63 -0.73,-3.95 -0.23,-1.32 -0.48,-2.64 -0.7,-3.97 -1.18,0 -2.35,0 -3.51,0 0.55,2.58 1.12,5.14 1.67,7.69 0.55,2.54 1.13,5.07 1.69,7.59 0.94,-0.05 1.89,-0.1 2.83,-0.16 0.17,-1.14 0.35,-2.28 0.51,-3.41 0.17,-1.14 0.35,-2.28 0.53,-3.41 0.17,1.12 0.35,2.24 0.51,3.36 0.17,1.12 0.36,2.23 0.54,3.35 0.93,-0.05 1.88,-0.1 2.83,-0.14 0.55,-2.5 1.12,-4.99 1.67,-7.47 0.55,-2.48 1.13,-4.94 1.69,-7.4 -1.17,0 -2.34,0 -3.5,0 -0.25,1.3 -0.5,2.59 -0.73,3.89 -0.23,1.3 -0.48,2.6 -0.71,3.91 -0.19,-1.3 -0.38,-2.6 -0.56,-3.89 -0.18,-1.3 -0.37,-2.6 -0.55,-3.91 -0.79,0 -1.59,0 -2.37,0 -0.19,1.32 -0.38,2.64 -0.56,3.96 -0.18,1.31 -0.37,2.64 -0.55,3.96zm115.07 -6.38c-0.3,0.29 -0.45,0.64 -0.45,1.07 0,1.82 0,3.63 0,5.45 0,1.81 0,3.63 0,5.44 0,0.43 0.15,0.79 0.45,1.1 0.29,0.3 0.67,0.46 1.1,0.49 1.77,0.09 3.55,0.19 5.32,0.29 0.45,0.03 0.82,-0.1 1.12,-0.38 0.29,-0.28 0.45,-0.64 0.45,-1.08 0,-1.87 0,-3.74 0,-5.61 0,-1.88 0,-3.75 0,-5.62 0,-0.44 -0.16,-0.81 -0.45,-1.11 -0.3,-0.29 -0.67,-0.44 -1.12,-0.44 -1.77,-0.01 -3.55,-0.02 -5.32,-0.03 -0.43,0 -0.81,0.14 -1.1,0.43zm3.02 6.61c0,-1.33 0,-2.66 0,-3.99 0,-0.2 0.1,-0.31 0.31,-0.3 0.28,0 0.57,0 0.87,0.01 0.21,0 0.32,0.11 0.32,0.32 0,1.34 0,2.68 0,4.01 0,1.34 0,2.68 0,4.02 0,0.21 -0.11,0.31 -0.32,0.3 -0.3,-0.01 -0.59,-0.03 -0.87,-0.04 -0.21,-0.01 -0.31,-0.13 -0.31,-0.35 0,-1.33 0,-2.66 0,-3.98zm-12.6 -6.66c-0.29,0.28 -0.43,0.63 -0.43,1.04 0,1.76 0,3.53 0,5.29 0,1.76 0,3.52 0,5.28 0,0.41 0.14,0.76 0.43,1.05 0.3,0.3 0.67,0.45 1.12,0.47 1.76,0.08 3.54,0.17 5.32,0.25 0.44,0.02 0.81,-0.1 1.1,-0.37 0.3,-0.27 0.45,-0.62 0.45,-1.05 0,-0.71 0,-1.43 0,-2.14 0,-0.72 0,-1.43 0,-2.15 -1.15,-0.03 -2.3,-0.07 -3.45,-0.1 0,0.92 0,1.84 0,2.76 0,0.2 -0.12,0.3 -0.32,0.29 -0.3,-0.01 -0.59,-0.02 -0.87,-0.03 -0.22,-0.01 -0.32,-0.11 -0.32,-0.32 0,-1.28 0,-2.57 0,-3.86 0,-1.29 0,-2.58 0,-3.87 0,-0.2 0.1,-0.3 0.32,-0.3 0.28,0.01 0.57,0.01 0.87,0.01 0.2,0.01 0.32,0.11 0.32,0.31 0,0.93 0,1.86 0,2.79 1.15,0.02 2.3,0.05 3.45,0.08 0,-0.72 0,-1.44 0,-2.16 0,-0.72 0,-1.44 0,-2.16 0,-0.42 -0.15,-0.78 -0.45,-1.07 -0.29,-0.28 -0.66,-0.43 -1.1,-0.43 -1.78,-0.01 -3.56,-0.01 -5.32,-0.02 -0.45,0 -0.82,0.14 -1.12,0.41zm-9.98 -0.44c0,1.95 0,3.9 0,5.85 0,1.95 0,3.9 0,5.85 0,0.4 0.14,0.75 0.45,1.04 0.3,0.28 0.65,0.44 1.1,0.45 1.77,0.06 3.53,0.13 5.31,0.2 0.44,0.02 0.81,-0.1 1.1,-0.38 0.3,-0.27 0.45,-0.61 0.45,-1.02 0,-2 0,-3.99 0,-5.99 0,-1.99 0,-3.98 0,-5.98 -1.16,0 -2.32,-0.01 -3.47,-0.01 0,1.74 0,3.47 0,5.21 0,1.73 0,3.47 0,5.2 0,0.18 -0.05,0.28 -0.15,0.28 -0.09,0.01 -0.16,0.01 -0.17,0.01 -0.28,-0.01 -0.56,-0.02 -0.84,-0.03 -0.02,0 -0.07,-0.01 -0.17,-0.02 -0.1,-0.01 -0.15,-0.11 -0.15,-0.29 0,-1.72 0,-3.45 0,-5.18 0,-1.72 0,-3.46 0,-5.18 -1.16,-0.01 -2.31,-0.01 -3.46,-0.01zm-9.55 -0.02c0,2.14 0,4.29 0,6.44 0,2.14 0,4.29 0,6.44 2.28,0.06 4.57,0.12 6.86,0.19 0.44,0.01 0.81,-0.11 1.1,-0.37 0.3,-0.26 0.45,-0.59 0.45,-0.99 0,-1.03 0,-2.06 0,-3.09 0,-0.41 -0.08,-0.81 -0.27,-1.17 -0.18,-0.37 -0.43,-0.68 -0.75,-0.95 0.27,-0.26 0.49,-0.55 0.65,-0.88 0.16,-0.33 0.23,-0.69 0.23,-1.08 0,-1.04 0,-2.07 0,-3.11 0,-0.39 -0.15,-0.73 -0.45,-1 -0.3,-0.28 -0.68,-0.42 -1.1,-0.42 -2.24,0 -4.48,-0.01 -6.72,-0.01zm3.47 5.3c0,-0.93 0,-1.85 0,-2.78 0.33,0 0.68,0 1.03,0.01 0.2,0 0.31,0.09 0.31,0.29 0,0.73 0,1.47 0,2.21 0,0.19 -0.11,0.29 -0.31,0.28 -0.35,0 -0.7,0 -1.03,-0.01zm0 2.39c0.39,0.01 0.77,0.02 1.15,0.02 0.22,0 0.32,0.1 0.32,0.29 0,0.74 0,1.47 0,2.2 0,0.19 -0.1,0.28 -0.32,0.28 -0.38,-0.01 -0.76,-0.02 -1.15,-0.03 0,-0.92 0,-1.84 0,-2.76zm-10.92 -7.7c-0.59,2.12 -1.17,4.23 -1.76,6.34 -0.59,2.11 -1.18,4.22 -1.77,6.32 1.19,0.02 2.38,0.05 3.58,0.07 0.13,-0.75 0.26,-1.51 0.39,-2.26 0.74,0.01 1.48,0.02 2.22,0.03 0.13,0.76 0.26,1.52 0.4,2.28 1.19,0.02 2.4,0.06 3.6,0.09 -0.59,-2.16 -1.18,-4.31 -1.77,-6.46 -0.59,-2.14 -1.18,-4.28 -1.76,-6.41 -1.05,0 -2.09,0 -3.13,0zm0.87 8.1c0.12,-0.67 0.23,-1.35 0.35,-2.03 0.11,-0.68 0.23,-1.36 0.36,-2.04 0.1,0.69 0.23,1.37 0.33,2.05 0.1,0.68 0.23,1.36 0.35,2.04 -0.46,-0.01 -0.93,-0.01 -1.39,-0.02zm-13.6 -8.12c0,2.1 0,4.2 0,6.29 0,2.1 0,4.2 0,6.29 1.15,0.01 2.3,0.02 3.47,0.04 0,-0.89 0,-1.78 0,-2.67 0,-0.89 0,-1.78 0,-2.67 0.2,0 0.42,0.01 0.64,0.01 0.17,0.89 0.37,1.78 0.55,2.67 0.17,0.89 0.37,1.79 0.56,2.67 1.18,0.02 2.35,0.03 3.53,0.05 -0.29,-0.91 -0.59,-1.81 -0.87,-2.71 -0.28,-0.9 -0.57,-1.8 -0.86,-2.7 0.39,-0.05 0.72,-0.18 0.99,-0.37 0.27,-0.19 0.4,-0.51 0.4,-0.95 0,-0.76 0,-1.52 0,-2.29 0,-0.76 0,-1.52 0,-2.28 0,-0.39 -0.15,-0.71 -0.45,-0.98 -0.3,-0.26 -0.67,-0.39 -1.1,-0.39 -2.29,0 -4.58,0 -6.86,-0.01zm3.47 4.84c0,-0.8 0,-1.59 0,-2.39 0.38,0 0.76,0 1.16,0.01 0.2,0 0.32,0.09 0.32,0.28 0,0.61 0,1.22 0,1.82 0,0.19 -0.12,0.28 -0.32,0.28 -0.4,0 -0.78,0 -1.16,0zm-10.09 -3.4c0,1.85 0,3.71 0,5.56 0,1.85 0,3.71 0,5.56 1.15,0 2.3,0.01 3.46,0.01 0,-1.85 0,-3.71 0,-5.56 0,-1.86 0,-3.71 0,-5.57 0.74,0 1.49,0 2.25,0 0,-0.81 0,-1.63 0,-2.44 -2.66,0 -5.33,0 -7.98,0 0,0.81 0,1.63 0,2.44 0.76,0 1.51,0 2.27,0zm-11.79 2.41c0.62,1.28 1.23,2.56 1.86,3.83 0,0.82 0,1.65 0,2.47 0,0.82 0,1.64 0,2.46 1.14,-0.01 2.28,-0.02 3.41,-0.03 0,-0.81 0,-1.63 0,-2.45 0,-0.82 0,-1.64 0,-2.46 0.62,-1.28 1.23,-2.56 1.85,-3.84 0.61,-1.27 1.23,-2.55 1.84,-3.83 -1.19,0 -2.38,0 -3.56,0 -0.31,0.83 -0.61,1.65 -0.92,2.48 -0.31,0.82 -0.61,1.64 -0.92,2.47 -0.31,-0.83 -0.62,-1.65 -0.92,-2.47 -0.31,-0.82 -0.62,-1.65 -0.92,-2.47 -1.19,0 -2.38,0 -3.56,0 0.61,1.28 1.23,2.56 1.84,3.84zm-8.97 -3.83c0,2.12 0,4.25 0,6.37 0,2.13 0,4.25 0,6.37 2.19,-0.04 4.38,-0.08 6.56,-0.1 0,-0.82 0,-1.64 0,-2.45 -1.03,0.01 -2.07,0.02 -3.09,0.03 0,-0.92 0,-1.84 0,-2.76 0.69,-0.01 1.38,-0.02 2.07,-0.02 0,-0.75 0,-1.5 0,-2.26 -0.69,0.01 -1.38,0.01 -2.07,0.02 0,-0.92 0,-1.83 0,-2.75 1.02,0 2.06,0 3.09,-0.01 0,-0.81 0,-1.63 0,-2.45 -2.18,0 -4.37,0 -6.56,0.01zm-6.95 0.01c0,2.15 0,4.3 0,6.45 0,2.14 0,4.29 0,6.44 2.01,-0.05 4.02,-0.1 6.04,-0.14 0,-0.82 0,-1.65 0,-2.47 -0.86,0.01 -1.72,0.02 -2.57,0.04 0,-1.72 0,-3.44 0,-5.16 0,-1.72 0,-3.45 0,-5.17 -1.17,0 -2.32,0.01 -3.47,0.01zm-6.94 0.01c0,2.18 0,4.36 0,6.54 0,2.18 0,4.36 0,6.54 2.01,-0.07 4.02,-0.12 6.03,-0.17 0,-0.84 0,-1.67 0,-2.51 -0.86,0.02 -1.72,0.04 -2.57,0.06 0,-1.75 0,-3.49 0,-5.23 0,-1.75 0,-3.49 0,-5.23 -1.16,0 -2.31,0 -3.46,0zm-9.57 1.48c0,0.92 0,1.85 0,2.77 0,0.33 0.07,0.63 0.23,0.9 0.15,0.27 0.35,0.53 0.61,0.74 1.27,1.04 2.57,2.04 3.85,3.06 0.19,0.16 0.27,0.35 0.27,0.55 0,0.29 0,0.59 0,0.88 0,0.19 -0.1,0.3 -0.32,0.3 -0.29,0.01 -0.57,0.02 -0.86,0.03 -0.21,0 -0.32,-0.09 -0.32,-0.29 0,-0.5 0,-1 0,-1.5 -1.16,0.04 -2.31,0.07 -3.46,0.1 0,0.99 0,1.98 0,2.96 0,0.42 0.15,0.76 0.44,1.02 0.3,0.27 0.67,0.39 1.1,0.37 1.78,-0.07 3.56,-0.14 5.34,-0.2 0.44,-0.01 0.81,-0.16 1.1,-0.44 0.3,-0.28 0.45,-0.62 0.45,-1.03 0,-0.89 0,-1.79 0,-2.69 0,-0.32 -0.08,-0.61 -0.23,-0.88 -0.15,-0.27 -0.35,-0.52 -0.61,-0.73 -1.29,-1.02 -2.58,-2.03 -3.86,-3.06 -0.18,-0.15 -0.27,-0.33 -0.27,-0.54 0,-0.31 0,-0.61 0,-0.91 0,-0.2 0.11,-0.3 0.32,-0.3 0.29,0 0.57,-0.01 0.86,-0.01 0.22,0 0.32,0.1 0.32,0.29 0,0.5 0,1 0,1.5 1.15,-0.02 2.31,-0.03 3.47,-0.05 0,-0.96 0,-1.93 0,-2.9 0,-0.4 -0.15,-0.74 -0.45,-1.01 -0.29,-0.27 -0.66,-0.4 -1.1,-0.4 -1.78,0 -3.56,0.01 -5.34,0.01 -0.43,0.01 -0.8,0.14 -1.1,0.42 -0.29,0.28 -0.44,0.63 -0.44,1.04zm-4.6 -1.44c0,2.27 0,4.53 0,6.8 0,2.26 0,4.52 0,6.79 1.15,-0.06 2.31,-0.1 3.46,-0.15 0,-2.24 0,-4.48 0,-6.72 0,-2.24 0,-4.49 0,-6.73 -1.15,0.01 -2.31,0.01 -3.46,0.01z"/>
   <g style="clip-path:url(#id0)">
    <g>
     <g>
      <image x="-94.32" y="-9.39" width="315.94" height="114.44" xlink:href="WT-darkBg_Images\WT-darkBg_ImgID1.png"/>
     </g>
    </g>
   </g>
   <path class="fil3" d="M4.09 38.52c-0.24,-1.31 -0.5,-2.63 -0.73,-3.95 -0.23,-1.32 -0.48,-2.64 -0.7,-3.97 -1.18,0 -2.35,0 -3.51,0 0.55,2.58 1.12,5.14 1.67,7.69 0.55,2.54 1.13,5.07 1.69,7.59 0.94,-0.05 1.89,-0.1 2.83,-0.16 0.17,-1.14 0.35,-2.28 0.51,-3.41 0.17,-1.14 0.35,-2.28 0.53,-3.41 0.17,1.12 0.35,2.24 0.51,3.36 0.17,1.12 0.36,2.23 0.54,3.35 0.93,-0.05 1.88,-0.1 2.83,-0.14 0.55,-2.5 1.12,-4.99 1.67,-7.47 0.55,-2.48 1.13,-4.94 1.69,-7.4 -1.17,0 -2.34,0 -3.5,0 -0.25,1.3 -0.5,2.59 -0.73,3.89 -0.23,1.3 -0.48,2.6 -0.71,3.91 -0.19,-1.3 -0.38,-2.6 -0.56,-3.89 -0.18,-1.3 -0.37,-2.6 -0.55,-3.91 -0.79,0 -1.59,0 -2.37,0 -0.19,1.32 -0.38,2.64 -0.56,3.96 -0.18,1.31 -0.37,2.64 -0.55,3.96zm115.07 -6.38c-0.3,0.29 -0.45,0.64 -0.45,1.07 0,1.82 0,3.63 0,5.45 0,1.81 0,3.63 0,5.44 0,0.43 0.15,0.79 0.45,1.1 0.29,0.3 0.67,0.46 1.1,0.49 1.77,0.09 3.55,0.19 5.32,0.29 0.45,0.03 0.82,-0.1 1.12,-0.38 0.29,-0.28 0.45,-0.64 0.45,-1.08 0,-1.87 0,-3.74 0,-5.61 0,-1.88 0,-3.75 0,-5.62 0,-0.44 -0.16,-0.81 -0.45,-1.11 -0.3,-0.29 -0.67,-0.44 -1.12,-0.44 -1.77,-0.01 -3.55,-0.02 -5.32,-0.03 -0.43,0 -0.81,0.14 -1.1,0.43zm3.02 6.61c0,-1.33 0,-2.66 0,-3.99 0,-0.2 0.1,-0.31 0.31,-0.3 0.28,0 0.57,0 0.87,0.01 0.21,0 0.32,0.11 0.32,0.32 0,1.34 0,2.68 0,4.01 0,1.34 0,2.68 0,4.02 0,0.21 -0.11,0.31 -0.32,0.3 -0.3,-0.01 -0.59,-0.03 -0.87,-0.04 -0.21,-0.01 -0.31,-0.13 -0.31,-0.35 0,-1.33 0,-2.66 0,-3.98zm-12.6 -6.66c-0.29,0.28 -0.43,0.63 -0.43,1.04 0,1.76 0,3.53 0,5.29 0,1.76 0,3.52 0,5.28 0,0.41 0.14,0.76 0.43,1.05 0.3,0.3 0.67,0.45 1.12,0.47 1.76,0.08 3.54,0.17 5.32,0.25 0.44,0.02 0.81,-0.1 1.1,-0.37 0.3,-0.27 0.45,-0.62 0.45,-1.05 0,-0.71 0,-1.43 0,-2.14 0,-0.72 0,-1.43 0,-2.15 -1.15,-0.03 -2.3,-0.07 -3.45,-0.1 0,0.92 0,1.84 0,2.76 0,0.2 -0.12,0.3 -0.32,0.29 -0.3,-0.01 -0.59,-0.02 -0.87,-0.03 -0.22,-0.01 -0.32,-0.11 -0.32,-0.32 0,-1.28 0,-2.57 0,-3.86 0,-1.29 0,-2.58 0,-3.87 0,-0.2 0.1,-0.3 0.32,-0.3 0.28,0.01 0.57,0.01 0.87,0.01 0.2,0.01 0.32,0.11 0.32,0.31 0,0.93 0,1.86 0,2.79 1.15,0.02 2.3,0.05 3.45,0.08 0,-0.72 0,-1.44 0,-2.16 0,-0.72 0,-1.44 0,-2.16 0,-0.42 -0.15,-0.78 -0.45,-1.07 -0.29,-0.28 -0.66,-0.43 -1.1,-0.43 -1.78,-0.01 -3.56,-0.01 -5.32,-0.02 -0.45,0 -0.82,0.14 -1.12,0.41zm-9.98 -0.44c0,1.95 0,3.9 0,5.85 0,1.95 0,3.9 0,5.85 0,0.4 0.14,0.75 0.45,1.04 0.3,0.28 0.65,0.44 1.1,0.45 1.77,0.06 3.53,0.13 5.31,0.2 0.44,0.02 0.81,-0.1 1.1,-0.38 0.3,-0.27 0.45,-0.61 0.45,-1.02 0,-2 0,-3.99 0,-5.99 0,-1.99 0,-3.98 0,-5.98 -1.16,0 -2.32,-0.01 -3.47,-0.01 0,1.74 0,3.47 0,5.21 0,1.73 0,3.47 0,5.2 0,0.18 -0.05,0.28 -0.15,0.28 -0.09,0.01 -0.16,0.01 -0.17,0.01 -0.28,-0.01 -0.56,-0.02 -0.84,-0.03 -0.02,0 -0.07,-0.01 -0.17,-0.02 -0.1,-0.01 -0.15,-0.11 -0.15,-0.29 0,-1.72 0,-3.45 0,-5.18 0,-1.72 0,-3.46 0,-5.18 -1.16,-0.01 -2.31,-0.01 -3.46,-0.01zm-9.55 -0.02c0,2.14 0,4.29 0,6.44 0,2.14 0,4.29 0,6.44 2.28,0.06 4.57,0.12 6.86,0.19 0.44,0.01 0.81,-0.11 1.1,-0.37 0.3,-0.26 0.45,-0.59 0.45,-0.99 0,-1.03 0,-2.06 0,-3.09 0,-0.41 -0.08,-0.81 -0.27,-1.17 -0.18,-0.37 -0.43,-0.68 -0.75,-0.95 0.27,-0.26 0.49,-0.55 0.65,-0.88 0.16,-0.33 0.23,-0.69 0.23,-1.08 0,-1.04 0,-2.07 0,-3.11 0,-0.39 -0.15,-0.73 -0.45,-1 -0.3,-0.28 -0.68,-0.42 -1.1,-0.42 -2.24,0 -4.48,-0.01 -6.72,-0.01zm3.47 5.3c0,-0.93 0,-1.85 0,-2.78 0.33,0 0.68,0 1.03,0.01 0.2,0 0.31,0.09 0.31,0.29 0,0.73 0,1.47 0,2.21 0,0.19 -0.11,0.29 -0.31,0.28 -0.35,0 -0.7,0 -1.03,-0.01zm0 2.39c0.39,0.01 0.77,0.02 1.15,0.02 0.22,0 0.32,0.1 0.32,0.29 0,0.74 0,1.47 0,2.2 0,0.19 -0.1,0.28 -0.32,0.28 -0.38,-0.01 -0.76,-0.02 -1.15,-0.03 0,-0.92 0,-1.84 0,-2.76zm-10.92 -7.7c-0.59,2.12 -1.17,4.23 -1.76,6.34 -0.59,2.11 -1.18,4.22 -1.77,6.32 1.19,0.02 2.38,0.05 3.58,0.07 0.13,-0.75 0.26,-1.51 0.39,-2.26 0.74,0.01 1.48,0.02 2.22,0.03 0.13,0.76 0.26,1.52 0.4,2.28 1.19,0.02 2.4,0.06 3.6,0.09 -0.59,-2.16 -1.18,-4.31 -1.77,-6.46 -0.59,-2.14 -1.18,-4.28 -1.76,-6.41 -1.05,0 -2.09,0 -3.13,0zm0.87 8.1c0.12,-0.67 0.23,-1.35 0.35,-2.03 0.11,-0.68 0.23,-1.36 0.36,-2.04 0.1,0.69 0.23,1.37 0.33,2.05 0.1,0.68 0.23,1.36 0.35,2.04 -0.46,-0.01 -0.93,-0.01 -1.39,-0.02zm-13.6 -8.12c0,2.1 0,4.2 0,6.29 0,2.1 0,4.2 0,6.29 1.15,0.01 2.3,0.02 3.47,0.04 0,-0.89 0,-1.78 0,-2.67 0,-0.89 0,-1.78 0,-2.67 0.2,0 0.42,0.01 0.64,0.01 0.17,0.89 0.37,1.78 0.55,2.67 0.17,0.89 0.37,1.79 0.56,2.67 1.18,0.02 2.35,0.03 3.53,0.05 -0.29,-0.91 -0.59,-1.81 -0.87,-2.71 -0.28,-0.9 -0.57,-1.8 -0.86,-2.7 0.39,-0.05 0.72,-0.18 0.99,-0.37 0.27,-0.19 0.4,-0.51 0.4,-0.95 0,-0.76 0,-1.52 0,-2.29 0,-0.76 0,-1.52 0,-2.28 0,-0.39 -0.15,-0.71 -0.45,-0.98 -0.3,-0.26 -0.67,-0.39 -1.1,-0.39 -2.29,0 -4.58,0 -6.86,-0.01zm3.47 4.84c0,-0.8 0,-1.59 0,-2.39 0.38,0 0.76,0 1.16,0.01 0.2,0 0.32,0.09 0.32,0.28 0,0.61 0,1.22 0,1.82 0,0.19 -0.12,0.28 -0.32,0.28 -0.4,0 -0.78,0 -1.16,0zm-10.09 -3.4c0,1.85 0,3.71 0,5.56 0,1.85 0,3.71 0,5.56 1.15,0 2.3,0.01 3.46,0.01 0,-1.85 0,-3.71 0,-5.56 0,-1.86 0,-3.71 0,-5.57 0.74,0 1.49,0 2.25,0 0,-0.81 0,-1.63 0,-2.44 -2.66,0 -5.33,0 -7.98,0 0,0.81 0,1.63 0,2.44 0.76,0 1.51,0 2.27,0zm-11.79 2.41c0.62,1.28 1.23,2.56 1.86,3.83 0,0.82 0,1.65 0,2.47 0,0.82 0,1.64 0,2.46 1.14,-0.01 2.28,-0.02 3.41,-0.03 0,-0.81 0,-1.63 0,-2.45 0,-0.82 0,-1.64 0,-2.46 0.62,-1.28 1.23,-2.56 1.85,-3.84 0.61,-1.27 1.23,-2.55 1.84,-3.83 -1.19,0 -2.38,0 -3.56,0 -0.31,0.83 -0.61,1.65 -0.92,2.48 -0.31,0.82 -0.61,1.64 -0.92,2.47 -0.31,-0.83 -0.62,-1.65 -0.92,-2.47 -0.31,-0.82 -0.62,-1.65 -0.92,-2.47 -1.19,0 -2.38,0 -3.56,0 0.61,1.28 1.23,2.56 1.84,3.84zm-8.97 -3.83c0,2.12 0,4.25 0,6.37 0,2.13 0,4.25 0,6.37 2.19,-0.04 4.38,-0.08 6.56,-0.1 0,-0.82 0,-1.64 0,-2.45 -1.03,0.01 -2.07,0.02 -3.09,0.03 0,-0.92 0,-1.84 0,-2.76 0.69,-0.01 1.38,-0.02 2.07,-0.02 0,-0.75 0,-1.5 0,-2.26 -0.69,0.01 -1.38,0.01 -2.07,0.02 0,-0.92 0,-1.83 0,-2.75 1.02,0 2.06,0 3.09,-0.01 0,-0.81 0,-1.63 0,-2.45 -2.18,0 -4.37,0 -6.56,0.01zm-6.95 0.01c0,2.15 0,4.3 0,6.45 0,2.14 0,4.29 0,6.44 2.01,-0.05 4.02,-0.1 6.04,-0.14 0,-0.82 0,-1.65 0,-2.47 -0.86,0.01 -1.72,0.02 -2.57,0.04 0,-1.72 0,-3.44 0,-5.16 0,-1.72 0,-3.45 0,-5.17 -1.17,0 -2.32,0.01 -3.47,0.01zm-6.94 0.01c0,2.18 0,4.36 0,6.54 0,2.18 0,4.36 0,6.54 2.01,-0.07 4.02,-0.12 6.03,-0.17 0,-0.84 0,-1.67 0,-2.51 -0.86,0.02 -1.72,0.04 -2.57,0.06 0,-1.75 0,-3.49 0,-5.23 0,-1.75 0,-3.49 0,-5.23 -1.16,0 -2.31,0 -3.46,0zm-9.57 1.48c0,0.92 0,1.85 0,2.77 0,0.33 0.07,0.63 0.23,0.9 0.15,0.27 0.35,0.53 0.61,0.74 1.27,1.04 2.57,2.04 3.85,3.06 0.19,0.16 0.27,0.35 0.27,0.55 0,0.29 0,0.59 0,0.88 0,0.19 -0.1,0.3 -0.32,0.3 -0.29,0.01 -0.57,0.02 -0.86,0.03 -0.21,0 -0.32,-0.09 -0.32,-0.29 0,-0.5 0,-1 0,-1.5 -1.16,0.04 -2.31,0.07 -3.46,0.1 0,0.99 0,1.98 0,2.96 0,0.42 0.15,0.76 0.44,1.02 0.3,0.27 0.67,0.39 1.1,0.37 1.78,-0.07 3.56,-0.14 5.34,-0.2 0.44,-0.01 0.81,-0.16 1.1,-0.44 0.3,-0.28 0.45,-0.62 0.45,-1.03 0,-0.89 0,-1.79 0,-2.69 0,-0.32 -0.08,-0.61 -0.23,-0.88 -0.15,-0.27 -0.35,-0.52 -0.61,-0.73 -1.29,-1.02 -2.58,-2.03 -3.86,-3.06 -0.18,-0.15 -0.27,-0.33 -0.27,-0.54 0,-0.31 0,-0.61 0,-0.91 0,-0.2 0.11,-0.3 0.32,-0.3 0.29,0 0.57,-0.01 0.86,-0.01 0.22,0 0.32,0.1 0.32,0.29 0,0.5 0,1 0,1.5 1.15,-0.02 2.31,-0.03 3.47,-0.05 0,-0.96 0,-1.93 0,-2.9 0,-0.4 -0.15,-0.74 -0.45,-1.01 -0.29,-0.27 -0.66,-0.4 -1.1,-0.4 -1.78,0 -3.56,0.01 -5.34,0.01 -0.43,0.01 -0.8,0.14 -1.1,0.42 -0.29,0.28 -0.44,0.63 -0.44,1.04zm-4.6 -1.44c0,2.27 0,4.53 0,6.8 0,2.26 0,4.52 0,6.79 1.15,-0.06 2.31,-0.1 3.46,-0.15 0,-2.24 0,-4.48 0,-6.72 0,-2.24 0,-4.49 0,-6.73 -1.15,0.01 -2.31,0.01 -3.46,0.01z"/>
  </g>
 </g>
</svg>
