<?xml version="1.0" encoding="UTF-8"?>
<!DOCTYPE svg PUBLIC "-//W3C//DTD SVG 1.1//EN" "http://www.w3.org/Graphics/SVG/1.1/DTD/svg11.dtd">
<!-- Creator: CorelDRAW -->
<svg xmlns="http://www.w3.org/2000/svg" xml:space="preserve" width="700px" height="86px" version="1.1" style="shape-rendering:geometricPrecision; text-rendering:geometricPrecision; image-rendering:optimizeQuality; fill-rule:evenodd; clip-rule:evenodd"
viewBox="0 0 700 85.93"
 xmlns:xlink="http://www.w3.org/1999/xlink"
 xmlns:xodm="http://www.corel.com/coreldraw/odm/2003">
 <defs>
  <style type="text/css">
   <![CDATA[
    .fil3 {fill:none}
    .fil1 {fill:#FEFEFE}
    .fil2 {fill:#FBCD3F}
    .fil0 {fill:#FFCC29}
   ]]>
  </style>
    <clipPath id="id0">
     <path d="M167.5 53.68c-1.05,-5.69 -2.16,-11.38 -3.15,-17.09 -1,-5.72 -2.05,-11.45 -3.05,-17.19 -5.09,0 -10.13,0 -15.18,0 2.39,11.14 4.87,22.24 7.26,33.27 2.38,11 4.87,21.95 7.31,32.85 4.05,-0.23 8.14,-0.46 12.24,-0.69 0.72,-4.93 1.5,-9.86 2.22,-14.78 0.72,-4.91 1.49,-9.83 2.27,-14.74 0.72,4.86 1.49,9.71 2.21,14.54 0.72,4.83 1.55,9.66 2.33,14.48 4.04,-0.19 8.14,-0.39 12.24,-0.59 2.38,-10.81 4.87,-21.6 7.26,-32.34 2.37,-10.7 4.87,-21.37 7.31,-32 -5.1,0 -10.14,0 -15.18,0 -1.05,5.6 -2.16,11.21 -3.15,16.83 -1,5.62 -2.05,11.25 -3.05,16.9 -0.83,-5.61 -1.66,-11.21 -2.44,-16.84 -0.77,-5.62 -1.6,-11.25 -2.38,-16.89 -3.43,0 -6.87,0 -10.25,0 -0.83,5.7 -1.66,11.4 -2.43,17.11 -0.78,5.71 -1.61,11.44 -2.39,17.17zm497.94 -27.62c-1.28,1.24 -1.94,2.78 -1.94,4.63 0,7.85 0,15.71 0,23.56 0,7.86 0,15.71 0,23.57 0,1.85 0.67,3.42 1.94,4.73 1.27,1.31 2.88,2.02 4.76,2.12 7.64,0.43 15.34,0.85 23.04,1.28 1.94,0.11 3.54,-0.43 4.82,-1.65 1.27,-1.2 1.94,-2.76 1.94,-4.67 0,-8.1 0,-16.2 0,-24.29 0,-8.1 0,-16.2 0,-24.31 0,-1.9 -0.66,-3.49 -1.94,-4.78 -1.27,-1.29 -2.88,-1.93 -4.82,-1.94 -7.7,-0.03 -15.4,-0.06 -23.04,-0.1 -1.88,0 -3.49,0.61 -4.76,1.85zm13.07 28.59c0,-5.74 0,-11.49 0,-17.24 0,-0.9 0.44,-1.34 1.33,-1.33 1.22,0.02 2.49,0.03 3.77,0.05 0.94,0.02 1.38,0.47 1.38,1.38 0,5.8 0,11.6 0,17.38 0,5.79 0,11.58 0,17.38 0,0.9 -0.44,1.33 -1.38,1.29 -1.28,-0.06 -2.55,-0.11 -3.77,-0.17 -0.89,-0.04 -1.33,-0.54 -1.33,-1.51 0,-5.74 0,-11.49 0,-17.23zm-54.5 -28.79c-1.28,1.2 -1.88,2.7 -1.88,4.49 0,7.62 0,15.25 0,22.86 0,7.63 0,15.24 0,22.87 0,1.79 0.61,3.31 1.88,4.56 1.28,1.26 2.88,1.92 4.82,2 7.64,0.35 15.34,0.73 23.04,1.11 1.88,0.09 3.49,-0.44 4.76,-1.61 1.28,-1.18 1.94,-2.69 1.94,-4.54 0,-3.09 0,-6.19 0,-9.27 0,-3.09 0,-6.2 0,-9.3 -4.99,-0.15 -9.97,-0.29 -14.95,-0.44 0,3.99 0,7.98 0,11.97 0,0.87 -0.5,1.29 -1.39,1.25 -1.27,-0.04 -2.55,-0.09 -3.77,-0.14 -0.94,-0.04 -1.38,-0.5 -1.38,-1.37 0,-5.57 0,-11.15 0,-16.72 0,-5.58 0,-11.15 0,-16.74 0,-0.88 0.44,-1.3 1.38,-1.29 1.22,0.01 2.5,0.03 3.77,0.04 0.89,0.01 1.39,0.46 1.39,1.34 0,4.02 0,8.04 0,12.06 4.98,0.1 9.96,0.22 14.95,0.33 0,-3.11 0,-6.23 0,-9.34 0,-3.11 0,-6.22 0,-9.33 0,-1.84 -0.66,-3.39 -1.94,-4.63 -1.27,-1.24 -2.88,-1.87 -4.76,-1.87 -7.7,-0.03 -15.4,-0.06 -23.04,-0.08 -1.94,-0.01 -3.55,0.59 -4.82,1.79zm-43.2 -1.93c0,8.44 0,16.88 0,25.32 0,8.44 0,16.88 0,25.32 0,1.74 0.62,3.23 1.93,4.49 1.29,1.23 2.83,1.9 4.77,1.96 7.64,0.26 15.29,0.57 22.98,0.88 1.89,0.08 3.49,-0.47 4.77,-1.65 1.27,-1.17 1.94,-2.66 1.94,-4.45 0,-8.62 0,-17.26 0,-25.88 0,-8.63 0,-17.26 0,-25.89 -5.04,-0.01 -10.03,-0.03 -15.01,-0.04 0,7.51 0,15.02 0,22.53 0,7.5 0,15.01 0,22.51 0,0.79 -0.23,1.2 -0.67,1.22 -0.39,0.01 -0.66,0.01 -0.72,0.01 -1.22,-0.04 -2.44,-0.08 -3.65,-0.12 -0.06,0 -0.28,-0.02 -0.72,-0.07 -0.45,-0.04 -0.67,-0.46 -0.67,-1.25 0,-7.47 0,-14.95 0,-22.42 0,-7.47 0,-14.96 0,-22.43 -4.98,-0.02 -9.97,-0.03 -14.95,-0.04zm-41.32 -0.09c0,9.29 0,18.59 0,27.88 0,9.28 0,18.58 0,27.86 9.86,0.25 19.77,0.51 29.69,0.83 1.88,0.06 3.48,-0.46 4.76,-1.59 1.27,-1.14 1.94,-2.57 1.94,-4.31 0,-4.45 0,-8.9 0,-13.35 0,-1.8 -0.37,-3.5 -1.17,-5.07 -0.81,-1.59 -1.88,-2.96 -3.26,-4.12 1.16,-1.12 2.13,-2.38 2.82,-3.82 0.69,-1.42 1,-2.99 1,-4.67 0,-4.48 0,-8.96 0,-13.44 0,-1.68 -0.65,-3.14 -1.94,-4.33 -1.31,-1.22 -2.94,-1.81 -4.76,-1.81 -9.7,-0.02 -19.39,-0.04 -29.08,-0.06zm15.01 22.95c0,-4.01 0,-8.03 0,-12.04 1.44,0.01 2.93,0.02 4.43,0.03 0.88,0.01 1.38,0.42 1.38,1.26 0,3.19 0,6.38 0,9.57 0,0.83 -0.5,1.25 -1.38,1.23 -1.5,-0.02 -2.99,-0.03 -4.43,-0.05zm0 10.34c1.66,0.03 3.32,0.06 4.98,0.09 0.94,0.01 1.39,0.44 1.39,1.27 0,3.16 0,6.32 0,9.48 0,0.83 -0.45,1.25 -1.39,1.23 -1.66,-0.04 -3.32,-0.08 -4.98,-0.12 0,-3.98 0,-7.96 0,-11.95zm-47.25 -33.34c-2.55,9.17 -5.09,18.34 -7.64,27.47 -2.55,9.12 -5.1,18.25 -7.64,27.33 5.15,0.1 10.3,0.2 15.5,0.29 0.56,-3.25 1.11,-6.52 1.66,-9.78 3.22,0.06 6.43,0.1 9.64,0.15 0.56,3.29 1.11,6.59 1.72,9.87 5.15,0.1 10.36,0.23 15.56,0.36 -2.54,-9.31 -5.09,-18.64 -7.64,-27.92 -2.55,-9.27 -5.1,-18.52 -7.64,-27.75 -4.55,-0.01 -9.03,-0.02 -13.52,-0.02zm3.77 35.08c0.5,-2.93 1,-5.86 1.49,-8.79 0.5,-2.94 1,-5.87 1.55,-8.81 0.45,2.95 1,5.89 1.44,8.84 0.45,2.94 1,5.89 1.5,8.83 -1.99,-0.02 -3.99,-0.04 -5.98,-0.07zm-58.88 -35.13c0,9.07 0,18.15 0,27.22 0,9.07 0,18.15 0,27.21 4.99,0.03 9.97,0.08 15.01,0.14 0,-3.83 0,-7.69 0,-11.53 0,-3.84 0,-7.69 0,-11.54 0.89,0 1.83,0.02 2.77,0.02 0.78,3.86 1.61,7.71 2.38,11.57 0.78,3.85 1.61,7.72 2.44,11.56 5.1,0.06 10.19,0.12 15.29,0.18 -1.28,-3.9 -2.55,-7.8 -3.77,-11.7 -1.22,-3.89 -2.49,-7.8 -3.71,-11.7 1.66,-0.22 3.1,-0.75 4.26,-1.58 1.17,-0.83 1.72,-2.21 1.72,-4.13 0,-3.29 0,-6.59 0,-9.88 0,-3.29 0,-6.6 0,-9.9 0,-1.68 -0.62,-3.07 -1.94,-4.22 -1.28,-1.12 -2.88,-1.7 -4.76,-1.7 -9.92,-0.01 -19.83,-0.02 -29.69,-0.02zm15.01 20.91c0,-3.44 0,-6.88 0,-10.32 1.66,0 3.32,0.01 5.04,0.02 0.89,0 1.39,0.4 1.39,1.22 0,2.63 0,5.27 0,7.9 0,0.81 -0.5,1.21 -1.39,1.2 -1.72,0 -3.38,-0.01 -5.04,-0.02zm-43.64 -14.7c0,8.02 0,16.04 0,24.07 0,8.02 0,16.03 0,24.05 4.98,0.02 9.97,0.04 14.95,0.06 0,-8.03 0,-16.05 0,-24.09 0,-8.02 0,-16.05 0,-24.08 3.21,0 6.48,0 9.75,0 0,-3.52 0,-7.04 0,-10.56 -11.52,0 -23.04,0 -34.51,0 0,3.52 0,7.04 0,10.56 3.27,-0.01 6.54,-0.01 9.81,-0.01zm-51.02 10.43c2.66,5.54 5.32,11.06 8.03,16.58 0,3.56 0,7.12 0,10.67 0,3.56 0,7.11 0,10.66 4.93,-0.06 9.86,-0.09 14.79,-0.11 0,-3.54 0,-7.09 0,-10.64 0,-3.54 0,-7.1 0,-10.64 2.66,-5.54 5.32,-11.07 7.98,-16.6 2.66,-5.52 5.32,-11.04 7.98,-16.57 -5.16,0 -10.31,0 -15.4,0.01 -1.33,3.57 -2.66,7.13 -3.99,10.7 -1.33,3.56 -2.66,7.13 -3.99,10.69 -1.33,-3.56 -2.66,-7.11 -3.99,-10.68 -1.33,-3.56 -2.66,-7.13 -3.98,-10.71 -5.16,0.01 -10.31,0.01 -15.4,0.02 2.66,5.55 5.32,11.1 7.97,16.62zm-38.82 -16.59c0,9.2 0,18.4 0,27.59 0,9.19 0,18.39 0,27.58 9.47,-0.18 18.94,-0.36 28.41,-0.47 0,-3.52 0,-7.06 0,-10.6 -4.49,0.04 -8.97,0.08 -13.4,0.14 0,-3.98 0,-7.97 0,-11.96 2.99,-0.03 5.98,-0.06 8.97,-0.08 0,-3.24 0,-6.5 0,-9.75 -2.99,0.01 -5.98,0.03 -8.97,0.05 0,-3.95 0,-7.91 0,-11.86 4.43,-0.02 8.91,-0.04 13.4,-0.05 0,-3.54 0,-7.08 0,-10.62 -9.47,0 -18.94,0.02 -28.41,0.03zm-30.08 0.06c0,9.29 0,18.6 0,27.89 0,9.3 0,18.6 0,27.89 8.7,-0.23 17.39,-0.43 26.14,-0.6 0,-3.56 0,-7.14 0,-10.71 -3.71,0.06 -7.42,0.12 -11.13,0.18 0,-7.45 0,-14.9 0,-22.34 0,-7.44 0,-14.89 0,-22.35 -5.04,0.02 -10.02,0.02 -15.01,0.04zm-30.02 0.06c0,9.43 0,18.87 0,28.29 0,9.43 0,18.87 0,28.3 8.7,-0.3 17.39,-0.54 26.09,-0.76 0,-3.61 0,-7.22 0,-10.84 -3.71,0.08 -7.42,0.16 -11.13,0.24 0,-7.54 0,-15.09 0,-22.63 0,-7.54 0,-15.09 0,-22.64 -4.99,0.02 -9.97,0.02 -14.96,0.04zm-41.43 6.38c0,4 0,7.99 0,11.99 0,1.42 0.33,2.71 1,3.9 0.66,1.19 1.52,2.3 2.66,3.22 5.51,4.48 11.12,8.8 16.67,13.25 0.82,0.65 1.16,1.49 1.16,2.34 0,1.28 0,2.55 0,3.82 0,0.84 -0.44,1.29 -1.38,1.31 -1.28,0.04 -2.49,0.06 -3.71,0.1 -0.95,0.03 -1.39,-0.38 -1.39,-1.23 0,-2.15 0,-4.32 0,-6.48 -5.04,0.14 -10.02,0.28 -15.01,0.43 0,4.28 0,8.55 0,12.82 0,1.78 0.67,3.24 1.94,4.39 1.28,1.15 2.88,1.67 4.76,1.59 7.7,-0.32 15.4,-0.59 23.1,-0.85 1.88,-0.06 3.49,-0.7 4.76,-1.91 1.28,-1.22 1.94,-2.7 1.94,-4.45 0,-3.87 0,-7.75 0,-11.64 0,-1.38 -0.33,-2.65 -0.99,-3.81 -0.67,-1.16 -1.52,-2.25 -2.66,-3.15 -5.56,-4.44 -11.15,-8.79 -16.67,-13.26 -0.79,-0.64 -1.17,-1.44 -1.17,-2.35 0,-1.32 0,-2.62 0,-3.93 0,-0.85 0.44,-1.28 1.39,-1.29 1.22,-0.01 2.43,-0.02 3.71,-0.03 0.94,-0.01 1.38,0.41 1.38,1.26 0,2.15 0,4.31 0,6.46 4.99,-0.07 9.97,-0.14 15.01,-0.2 0,-4.17 0,-8.36 0,-12.54 0,-1.74 -0.66,-3.19 -1.94,-4.36 -1.27,-1.18 -2.88,-1.75 -4.76,-1.75 -7.7,0.02 -15.4,0.03 -23.1,0.06 -1.88,0.01 -3.49,0.6 -4.76,1.81 -1.28,1.2 -1.94,2.7 -1.94,4.48zm-19.88 -6.21c0,9.8 0,19.6 0,29.4 0,9.79 0,19.59 0,29.38 4.98,-0.23 9.97,-0.43 14.95,-0.64 0,-9.69 0,-19.39 0,-29.09 0,-9.69 0,-19.4 0,-29.1 -4.98,0.02 -9.97,0.04 -14.95,0.05z"/>
    </clipPath>
 </defs>
 <g id="Camada_x0020_1">
  <metadata id="CorelCorpID_0Corel-Layer"/>
  <g id="_1676170569584">
   <g>
    <g>
     <path class="fil0" d="M66.19 55.86l-7.24 -12.66 -7.24 12.66 7.24 12.65 7.24 -12.65zm-10.32 -18.04l-6.01 -10.52 -4.61 -8.05 -13.8 0 3.09 5.39 14.43 25.24 6.9 -12.06zm6.16 36.08l6.9 12.06 19.08 -33.35 19.07 -33.36 -13.8 0 -31.25 54.65z"/>
     <polygon class="fil0" points="48.97,60.66 29.9,27.3 25.29,19.25 10.82,19.25 29.9,52.61 48.97,85.96 68.05,52.61 87.12,19.25 72.65,19.25 68.05,27.3 "/>
    </g>
    <g>
     <polygon class="fil1" points="59.29,31.28 62.73,25.26 66.17,19.25 59.29,19.25 52.41,19.25 55.85,25.26 "/>
     <polygon class="fil1" points="117.9,0.04 0,0.04 7.69,13.48 110.21,13.48 "/>
    </g>
   </g>
   <path class="fil2" d="M167.5 53.68c-1.05,-5.69 -2.16,-11.38 -3.15,-17.09 -1,-5.72 -2.05,-11.45 -3.05,-17.19 -5.09,0 -10.13,0 -15.18,0 2.39,11.14 4.87,22.24 7.26,33.27 2.38,11 4.87,21.95 7.31,32.85 4.05,-0.23 8.14,-0.46 12.24,-0.69 0.72,-4.93 1.5,-9.86 2.22,-14.78 0.72,-4.91 1.49,-9.83 2.27,-14.74 0.72,4.86 1.49,9.71 2.21,14.54 0.72,4.83 1.55,9.66 2.33,14.48 4.04,-0.19 8.14,-0.39 12.24,-0.59 2.38,-10.81 4.87,-21.6 7.26,-32.34 2.37,-10.7 4.87,-21.37 7.31,-32 -5.1,0 -10.14,0 -15.18,0 -1.05,5.6 -2.16,11.21 -3.15,16.83 -1,5.62 -2.05,11.25 -3.05,16.9 -0.83,-5.61 -1.66,-11.21 -2.44,-16.84 -0.77,-5.62 -1.6,-11.25 -2.38,-16.89 -3.43,0 -6.87,0 -10.25,0 -0.83,5.7 -1.66,11.4 -2.43,17.11 -0.78,5.71 -1.61,11.44 -2.39,17.17zm497.94 -27.62c-1.28,1.24 -1.94,2.78 -1.94,4.63 0,7.85 0,15.71 0,23.56 0,7.86 0,15.71 0,23.57 0,1.85 0.67,3.42 1.94,4.73 1.27,1.31 2.88,2.02 4.76,2.12 7.64,0.43 15.34,0.85 23.04,1.28 1.94,0.11 3.54,-0.43 4.82,-1.65 1.27,-1.2 1.94,-2.76 1.94,-4.67 0,-8.1 0,-16.2 0,-24.29 0,-8.1 0,-16.2 0,-24.31 0,-1.9 -0.66,-3.49 -1.94,-4.78 -1.27,-1.29 -2.88,-1.93 -4.82,-1.94 -7.7,-0.03 -15.4,-0.06 -23.04,-0.1 -1.88,0 -3.49,0.61 -4.76,1.85zm13.07 28.59c0,-5.74 0,-11.49 0,-17.24 0,-0.9 0.44,-1.34 1.33,-1.33 1.22,0.02 2.49,0.03 3.77,0.05 0.94,0.02 1.38,0.47 1.38,1.38 0,5.8 0,11.6 0,17.38 0,5.79 0,11.58 0,17.38 0,0.9 -0.44,1.33 -1.38,1.29 -1.28,-0.06 -2.55,-0.11 -3.77,-0.17 -0.89,-0.04 -1.33,-0.54 -1.33,-1.51 0,-5.74 0,-11.49 0,-17.23zm-54.5 -28.79c-1.28,1.2 -1.88,2.7 -1.88,4.49 0,7.62 0,15.25 0,22.86 0,7.63 0,15.24 0,22.87 0,1.79 0.61,3.31 1.88,4.56 1.28,1.26 2.88,1.92 4.82,2 7.64,0.35 15.34,0.73 23.04,1.11 1.88,0.09 3.49,-0.44 4.76,-1.61 1.28,-1.18 1.94,-2.69 1.94,-4.54 0,-3.09 0,-6.19 0,-9.27 0,-3.09 0,-6.2 0,-9.3 -4.99,-0.15 -9.97,-0.29 -14.95,-0.44 0,3.99 0,7.98 0,11.97 0,0.87 -0.5,1.29 -1.39,1.25 -1.27,-0.04 -2.55,-0.09 -3.77,-0.14 -0.94,-0.04 -1.38,-0.5 -1.38,-1.37 0,-5.57 0,-11.15 0,-16.72 0,-5.58 0,-11.15 0,-16.74 0,-0.88 0.44,-1.3 1.38,-1.29 1.22,0.01 2.5,0.03 3.77,0.04 0.89,0.01 1.39,0.46 1.39,1.34 0,4.02 0,8.04 0,12.06 4.98,0.1 9.96,0.22 14.95,0.33 0,-3.11 0,-6.23 0,-9.34 0,-3.11 0,-6.22 0,-9.33 0,-1.84 -0.66,-3.39 -1.94,-4.63 -1.27,-1.24 -2.88,-1.87 -4.76,-1.87 -7.7,-0.03 -15.4,-0.06 -23.04,-0.08 -1.94,-0.01 -3.55,0.59 -4.82,1.79zm-43.2 -1.93c0,8.44 0,16.88 0,25.32 0,8.44 0,16.88 0,25.32 0,1.74 0.62,3.23 1.93,4.49 1.29,1.23 2.83,1.9 4.77,1.96 7.64,0.26 15.29,0.57 22.98,0.88 1.89,0.08 3.49,-0.47 4.77,-1.65 1.27,-1.17 1.94,-2.66 1.94,-4.45 0,-8.62 0,-17.26 0,-25.88 0,-8.63 0,-17.26 0,-25.89 -5.04,-0.01 -10.03,-0.03 -15.01,-0.04 0,7.51 0,15.02 0,22.53 0,7.5 0,15.01 0,22.51 0,0.79 -0.23,1.2 -0.67,1.22 -0.39,0.01 -0.66,0.01 -0.72,0.01 -1.22,-0.04 -2.44,-0.08 -3.65,-0.12 -0.06,0 -0.28,-0.02 -0.72,-0.07 -0.45,-0.04 -0.67,-0.46 -0.67,-1.25 0,-7.47 0,-14.95 0,-22.42 0,-7.47 0,-14.96 0,-22.43 -4.98,-0.02 -9.97,-0.03 -14.95,-0.04zm-41.32 -0.09c0,9.29 0,18.59 0,27.88 0,9.28 0,18.58 0,27.86 9.86,0.25 19.77,0.51 29.69,0.83 1.88,0.06 3.48,-0.46 4.76,-1.59 1.27,-1.14 1.94,-2.57 1.94,-4.31 0,-4.45 0,-8.9 0,-13.35 0,-1.8 -0.37,-3.5 -1.17,-5.07 -0.81,-1.59 -1.88,-2.96 -3.26,-4.12 1.16,-1.12 2.13,-2.38 2.82,-3.82 0.69,-1.42 1,-2.99 1,-4.67 0,-4.48 0,-8.96 0,-13.44 0,-1.68 -0.65,-3.14 -1.94,-4.33 -1.31,-1.22 -2.94,-1.81 -4.76,-1.81 -9.7,-0.02 -19.39,-0.04 -29.08,-0.06zm15.01 22.95c0,-4.01 0,-8.03 0,-12.04 1.44,0.01 2.93,0.02 4.43,0.03 0.88,0.01 1.38,0.42 1.38,1.26 0,3.19 0,6.38 0,9.57 0,0.83 -0.5,1.25 -1.38,1.23 -1.5,-0.02 -2.99,-0.03 -4.43,-0.05zm0 10.34c1.66,0.03 3.32,0.06 4.98,0.09 0.94,0.01 1.39,0.44 1.39,1.27 0,3.16 0,6.32 0,9.48 0,0.83 -0.45,1.25 -1.39,1.23 -1.66,-0.04 -3.32,-0.08 -4.98,-0.12 0,-3.98 0,-7.96 0,-11.95zm-47.25 -33.34c-2.55,9.17 -5.09,18.34 -7.64,27.47 -2.55,9.12 -5.1,18.25 -7.64,27.33 5.15,0.1 10.3,0.2 15.5,0.29 0.56,-3.25 1.11,-6.52 1.66,-9.78 3.22,0.06 6.43,0.1 9.64,0.15 0.56,3.29 1.11,6.59 1.72,9.87 5.15,0.1 10.36,0.23 15.56,0.36 -2.54,-9.31 -5.09,-18.64 -7.64,-27.92 -2.55,-9.27 -5.1,-18.52 -7.64,-27.75 -4.55,-0.01 -9.03,-0.02 -13.52,-0.02zm3.77 35.08c0.5,-2.93 1,-5.86 1.49,-8.79 0.5,-2.94 1,-5.87 1.55,-8.81 0.45,2.95 1,5.89 1.44,8.84 0.45,2.94 1,5.89 1.5,8.83 -1.99,-0.02 -3.99,-0.04 -5.98,-0.07zm-58.88 -35.13c0,9.07 0,18.15 0,27.22 0,9.07 0,18.15 0,27.21 4.99,0.03 9.97,0.08 15.01,0.14 0,-3.83 0,-7.69 0,-11.53 0,-3.84 0,-7.69 0,-11.54 0.89,0 1.83,0.02 2.77,0.02 0.78,3.86 1.61,7.71 2.38,11.57 0.78,3.85 1.61,7.72 2.44,11.56 5.1,0.06 10.19,0.12 15.29,0.18 -1.28,-3.9 -2.55,-7.8 -3.77,-11.7 -1.22,-3.89 -2.49,-7.8 -3.71,-11.7 1.66,-0.22 3.1,-0.75 4.26,-1.58 1.17,-0.83 1.72,-2.21 1.72,-4.13 0,-3.29 0,-6.59 0,-9.88 0,-3.29 0,-6.6 0,-9.9 0,-1.68 -0.62,-3.07 -1.94,-4.22 -1.28,-1.12 -2.88,-1.7 -4.76,-1.7 -9.92,-0.01 -19.83,-0.02 -29.69,-0.02zm15.01 20.91c0,-3.44 0,-6.88 0,-10.32 1.66,0 3.32,0.01 5.04,0.02 0.89,0 1.39,0.4 1.39,1.22 0,2.63 0,5.27 0,7.9 0,0.81 -0.5,1.21 -1.39,1.2 -1.72,0 -3.38,-0.01 -5.04,-0.02zm-43.64 -14.7c0,8.02 0,16.04 0,24.07 0,8.02 0,16.03 0,24.05 4.98,0.02 9.97,0.04 14.95,0.06 0,-8.03 0,-16.05 0,-24.09 0,-8.02 0,-16.05 0,-24.08 3.21,0 6.48,0 9.75,0 0,-3.52 0,-7.04 0,-10.56 -11.52,0 -23.04,0 -34.51,0 0,3.52 0,7.04 0,10.56 3.27,-0.01 6.54,-0.01 9.81,-0.01zm-51.02 10.43c2.66,5.54 5.32,11.06 8.03,16.58 0,3.56 0,7.12 0,10.67 0,3.56 0,7.11 0,10.66 4.93,-0.06 9.86,-0.09 14.79,-0.11 0,-3.54 0,-7.09 0,-10.64 0,-3.54 0,-7.1 0,-10.64 2.66,-5.54 5.32,-11.07 7.98,-16.6 2.66,-5.52 5.32,-11.04 7.98,-16.57 -5.16,0 -10.31,0 -15.4,0.01 -1.33,3.57 -2.66,7.13 -3.99,10.7 -1.33,3.56 -2.66,7.13 -3.99,10.69 -1.33,-3.56 -2.66,-7.11 -3.99,-10.68 -1.33,-3.56 -2.66,-7.13 -3.98,-10.71 -5.16,0.01 -10.31,0.01 -15.4,0.02 2.66,5.55 5.32,11.1 7.97,16.62zm-38.82 -16.59c0,9.2 0,18.4 0,27.59 0,9.19 0,18.39 0,27.58 9.47,-0.18 18.94,-0.36 28.41,-0.47 0,-3.52 0,-7.06 0,-10.6 -4.49,0.04 -8.97,0.08 -13.4,0.14 0,-3.98 0,-7.97 0,-11.96 2.99,-0.03 5.98,-0.06 8.97,-0.08 0,-3.24 0,-6.5 0,-9.75 -2.99,0.01 -5.98,0.03 -8.97,0.05 0,-3.95 0,-7.91 0,-11.86 4.43,-0.02 8.91,-0.04 13.4,-0.05 0,-3.54 0,-7.08 0,-10.62 -9.47,0 -18.94,0.02 -28.41,0.03zm-30.08 0.06c0,9.29 0,18.6 0,27.89 0,9.3 0,18.6 0,27.89 8.7,-0.23 17.39,-0.43 26.14,-0.6 0,-3.56 0,-7.14 0,-10.71 -3.71,0.06 -7.42,0.12 -11.13,0.18 0,-7.45 0,-14.9 0,-22.34 0,-7.44 0,-14.89 0,-22.35 -5.04,0.02 -10.02,0.02 -15.01,0.04zm-30.02 0.06c0,9.43 0,18.87 0,28.29 0,9.43 0,18.87 0,28.3 8.7,-0.3 17.39,-0.54 26.09,-0.76 0,-3.61 0,-7.22 0,-10.84 -3.71,0.08 -7.42,0.16 -11.13,0.24 0,-7.54 0,-15.09 0,-22.63 0,-7.54 0,-15.09 0,-22.64 -4.99,0.02 -9.97,0.02 -14.96,0.04zm-41.43 6.38c0,4 0,7.99 0,11.99 0,1.42 0.33,2.71 1,3.9 0.66,1.19 1.52,2.3 2.66,3.22 5.51,4.48 11.12,8.8 16.67,13.25 0.82,0.65 1.16,1.49 1.16,2.34 0,1.28 0,2.55 0,3.82 0,0.84 -0.44,1.29 -1.38,1.31 -1.28,0.04 -2.49,0.06 -3.71,0.1 -0.95,0.03 -1.39,-0.38 -1.39,-1.23 0,-2.15 0,-4.32 0,-6.48 -5.04,0.14 -10.02,0.28 -15.01,0.43 0,4.28 0,8.55 0,12.82 0,1.78 0.67,3.24 1.94,4.39 1.28,1.15 2.88,1.67 4.76,1.59 7.7,-0.32 15.4,-0.59 23.1,-0.85 1.88,-0.06 3.49,-0.7 4.76,-1.91 1.28,-1.22 1.94,-2.7 1.94,-4.45 0,-3.87 0,-7.75 0,-11.64 0,-1.38 -0.33,-2.65 -0.99,-3.81 -0.67,-1.16 -1.52,-2.25 -2.66,-3.15 -5.56,-4.44 -11.15,-8.79 -16.67,-13.26 -0.79,-0.64 -1.17,-1.44 -1.17,-2.35 0,-1.32 0,-2.62 0,-3.93 0,-0.85 0.44,-1.28 1.39,-1.29 1.22,-0.01 2.43,-0.02 3.71,-0.03 0.94,-0.01 1.38,0.41 1.38,1.26 0,2.15 0,4.31 0,6.46 4.99,-0.07 9.97,-0.14 15.01,-0.2 0,-4.17 0,-8.36 0,-12.54 0,-1.74 -0.66,-3.19 -1.94,-4.36 -1.27,-1.18 -2.88,-1.75 -4.76,-1.75 -7.7,0.02 -15.4,0.03 -23.1,0.06 -1.88,0.01 -3.49,0.6 -4.76,1.81 -1.28,1.2 -1.94,2.7 -1.94,4.48zm-19.88 -6.21c0,9.8 0,19.6 0,29.4 0,9.79 0,19.59 0,29.38 4.98,-0.23 9.97,-0.43 14.95,-0.64 0,-9.69 0,-19.39 0,-29.09 0,-9.69 0,-19.4 0,-29.1 -4.98,0.02 -9.97,0.04 -14.95,0.05z"/>
   <g style="clip-path:url(#id0)">
    <g>
     <g>
      <image x="-105.96" y="-0.11" width="1059.04" height="188.12" xlink:href="WT-logotipo_Images\WT-logotipo_ImgID1.png"/>
     </g>
    </g>
   </g>
   <path class="fil3" d="M167.5 53.68c-1.05,-5.69 -2.16,-11.38 -3.15,-17.09 -1,-5.72 -2.05,-11.45 -3.05,-17.19 -5.09,0 -10.13,0 -15.18,0 2.39,11.14 4.87,22.24 7.26,33.27 2.38,11 4.87,21.95 7.31,32.85 4.05,-0.23 8.14,-0.46 12.24,-0.69 0.72,-4.93 1.5,-9.86 2.22,-14.78 0.72,-4.91 1.49,-9.83 2.27,-14.74 0.72,4.86 1.49,9.71 2.21,14.54 0.72,4.83 1.55,9.66 2.33,14.48 4.04,-0.19 8.14,-0.39 12.24,-0.59 2.38,-10.81 4.87,-21.6 7.26,-32.34 2.37,-10.7 4.87,-21.37 7.31,-32 -5.1,0 -10.14,0 -15.18,0 -1.05,5.6 -2.16,11.21 -3.15,16.83 -1,5.62 -2.05,11.25 -3.05,16.9 -0.83,-5.61 -1.66,-11.21 -2.44,-16.84 -0.77,-5.62 -1.6,-11.25 -2.38,-16.89 -3.43,0 -6.87,0 -10.25,0 -0.83,5.7 -1.66,11.4 -2.43,17.11 -0.78,5.71 -1.61,11.44 -2.39,17.17zm497.94 -27.62c-1.28,1.24 -1.94,2.78 -1.94,4.63 0,7.85 0,15.71 0,23.56 0,7.86 0,15.71 0,23.57 0,1.85 0.67,3.42 1.94,4.73 1.27,1.31 2.88,2.02 4.76,2.12 7.64,0.43 15.34,0.85 23.04,1.28 1.94,0.11 3.54,-0.43 4.82,-1.65 1.27,-1.2 1.94,-2.76 1.94,-4.67 0,-8.1 0,-16.2 0,-24.29 0,-8.1 0,-16.2 0,-24.31 0,-1.9 -0.66,-3.49 -1.94,-4.78 -1.27,-1.29 -2.88,-1.93 -4.82,-1.94 -7.7,-0.03 -15.4,-0.06 -23.04,-0.1 -1.88,0 -3.49,0.61 -4.76,1.85zm13.07 28.59c0,-5.74 0,-11.49 0,-17.24 0,-0.9 0.44,-1.34 1.33,-1.33 1.22,0.02 2.49,0.03 3.77,0.05 0.94,0.02 1.38,0.47 1.38,1.38 0,5.8 0,11.6 0,17.38 0,5.79 0,11.58 0,17.38 0,0.9 -0.44,1.33 -1.38,1.29 -1.28,-0.06 -2.55,-0.11 -3.77,-0.17 -0.89,-0.04 -1.33,-0.54 -1.33,-1.51 0,-5.74 0,-11.49 0,-17.23zm-54.5 -28.79c-1.28,1.2 -1.88,2.7 -1.88,4.49 0,7.62 0,15.25 0,22.86 0,7.63 0,15.24 0,22.87 0,1.79 0.61,3.31 1.88,4.56 1.28,1.26 2.88,1.92 4.82,2 7.64,0.35 15.34,0.73 23.04,1.11 1.88,0.09 3.49,-0.44 4.76,-1.61 1.28,-1.18 1.94,-2.69 1.94,-4.54 0,-3.09 0,-6.19 0,-9.27 0,-3.09 0,-6.2 0,-9.3 -4.99,-0.15 -9.97,-0.29 -14.95,-0.44 0,3.99 0,7.98 0,11.97 0,0.87 -0.5,1.29 -1.39,1.25 -1.27,-0.04 -2.55,-0.09 -3.77,-0.14 -0.94,-0.04 -1.38,-0.5 -1.38,-1.37 0,-5.57 0,-11.15 0,-16.72 0,-5.58 0,-11.15 0,-16.74 0,-0.88 0.44,-1.3 1.38,-1.29 1.22,0.01 2.5,0.03 3.77,0.04 0.89,0.01 1.39,0.46 1.39,1.34 0,4.02 0,8.04 0,12.06 4.98,0.1 9.96,0.22 14.95,0.33 0,-3.11 0,-6.23 0,-9.34 0,-3.11 0,-6.22 0,-9.33 0,-1.84 -0.66,-3.39 -1.94,-4.63 -1.27,-1.24 -2.88,-1.87 -4.76,-1.87 -7.7,-0.03 -15.4,-0.06 -23.04,-0.08 -1.94,-0.01 -3.55,0.59 -4.82,1.79zm-43.2 -1.93c0,8.44 0,16.88 0,25.32 0,8.44 0,16.88 0,25.32 0,1.74 0.62,3.23 1.93,4.49 1.29,1.23 2.83,1.9 4.77,1.96 7.64,0.26 15.29,0.57 22.98,0.88 1.89,0.08 3.49,-0.47 4.77,-1.65 1.27,-1.17 1.94,-2.66 1.94,-4.45 0,-8.62 0,-17.26 0,-25.88 0,-8.63 0,-17.26 0,-25.89 -5.04,-0.01 -10.03,-0.03 -15.01,-0.04 0,7.51 0,15.02 0,22.53 0,7.5 0,15.01 0,22.51 0,0.79 -0.23,1.2 -0.67,1.22 -0.39,0.01 -0.66,0.01 -0.72,0.01 -1.22,-0.04 -2.44,-0.08 -3.65,-0.12 -0.06,0 -0.28,-0.02 -0.72,-0.07 -0.45,-0.04 -0.67,-0.46 -0.67,-1.25 0,-7.47 0,-14.95 0,-22.42 0,-7.47 0,-14.96 0,-22.43 -4.98,-0.02 -9.97,-0.03 -14.95,-0.04zm-41.32 -0.09c0,9.29 0,18.59 0,27.88 0,9.28 0,18.58 0,27.86 9.86,0.25 19.77,0.51 29.69,0.83 1.88,0.06 3.48,-0.46 4.76,-1.59 1.27,-1.14 1.94,-2.57 1.94,-4.31 0,-4.45 0,-8.9 0,-13.35 0,-1.8 -0.37,-3.5 -1.17,-5.07 -0.81,-1.59 -1.88,-2.96 -3.26,-4.12 1.16,-1.12 2.13,-2.38 2.82,-3.82 0.69,-1.42 1,-2.99 1,-4.67 0,-4.48 0,-8.96 0,-13.44 0,-1.68 -0.65,-3.14 -1.94,-4.33 -1.31,-1.22 -2.94,-1.81 -4.76,-1.81 -9.7,-0.02 -19.39,-0.04 -29.08,-0.06zm15.01 22.95c0,-4.01 0,-8.03 0,-12.04 1.44,0.01 2.93,0.02 4.43,0.03 0.88,0.01 1.38,0.42 1.38,1.26 0,3.19 0,6.38 0,9.57 0,0.83 -0.5,1.25 -1.38,1.23 -1.5,-0.02 -2.99,-0.03 -4.43,-0.05zm0 10.34c1.66,0.03 3.32,0.06 4.98,0.09 0.94,0.01 1.39,0.44 1.39,1.27 0,3.16 0,6.32 0,9.48 0,0.83 -0.45,1.25 -1.39,1.23 -1.66,-0.04 -3.32,-0.08 -4.98,-0.12 0,-3.98 0,-7.96 0,-11.95zm-47.25 -33.34c-2.55,9.17 -5.09,18.34 -7.64,27.47 -2.55,9.12 -5.1,18.25 -7.64,27.33 5.15,0.1 10.3,0.2 15.5,0.29 0.56,-3.25 1.11,-6.52 1.66,-9.78 3.22,0.06 6.43,0.1 9.64,0.15 0.56,3.29 1.11,6.59 1.72,9.87 5.15,0.1 10.36,0.23 15.56,0.36 -2.54,-9.31 -5.09,-18.64 -7.64,-27.92 -2.55,-9.27 -5.1,-18.52 -7.64,-27.75 -4.55,-0.01 -9.03,-0.02 -13.52,-0.02zm3.77 35.08c0.5,-2.93 1,-5.86 1.49,-8.79 0.5,-2.94 1,-5.87 1.55,-8.81 0.45,2.95 1,5.89 1.44,8.84 0.45,2.94 1,5.89 1.5,8.83 -1.99,-0.02 -3.99,-0.04 -5.98,-0.07zm-58.88 -35.13c0,9.07 0,18.15 0,27.22 0,9.07 0,18.15 0,27.21 4.99,0.03 9.97,0.08 15.01,0.14 0,-3.83 0,-7.69 0,-11.53 0,-3.84 0,-7.69 0,-11.54 0.89,0 1.83,0.02 2.77,0.02 0.78,3.86 1.61,7.71 2.38,11.57 0.78,3.85 1.61,7.72 2.44,11.56 5.1,0.06 10.19,0.12 15.29,0.18 -1.28,-3.9 -2.55,-7.8 -3.77,-11.7 -1.22,-3.89 -2.49,-7.8 -3.71,-11.7 1.66,-0.22 3.1,-0.75 4.26,-1.58 1.17,-0.83 1.72,-2.21 1.72,-4.13 0,-3.29 0,-6.59 0,-9.88 0,-3.29 0,-6.6 0,-9.9 0,-1.68 -0.62,-3.07 -1.94,-4.22 -1.28,-1.12 -2.88,-1.7 -4.76,-1.7 -9.92,-0.01 -19.83,-0.02 -29.69,-0.02zm15.01 20.91c0,-3.44 0,-6.88 0,-10.32 1.66,0 3.32,0.01 5.04,0.02 0.89,0 1.39,0.4 1.39,1.22 0,2.63 0,5.27 0,7.9 0,0.81 -0.5,1.21 -1.39,1.2 -1.72,0 -3.38,-0.01 -5.04,-0.02zm-43.64 -14.7c0,8.02 0,16.04 0,24.07 0,8.02 0,16.03 0,24.05 4.98,0.02 9.97,0.04 14.95,0.06 0,-8.03 0,-16.05 0,-24.09 0,-8.02 0,-16.05 0,-24.08 3.21,0 6.48,0 9.75,0 0,-3.52 0,-7.04 0,-10.56 -11.52,0 -23.04,0 -34.51,0 0,3.52 0,7.04 0,10.56 3.27,-0.01 6.54,-0.01 9.81,-0.01zm-51.02 10.43c2.66,5.54 5.32,11.06 8.03,16.58 0,3.56 0,7.12 0,10.67 0,3.56 0,7.11 0,10.66 4.93,-0.06 9.86,-0.09 14.79,-0.11 0,-3.54 0,-7.09 0,-10.64 0,-3.54 0,-7.1 0,-10.64 2.66,-5.54 5.32,-11.07 7.98,-16.6 2.66,-5.52 5.32,-11.04 7.98,-16.57 -5.16,0 -10.31,0 -15.4,0.01 -1.33,3.57 -2.66,7.13 -3.99,10.7 -1.33,3.56 -2.66,7.13 -3.99,10.69 -1.33,-3.56 -2.66,-7.11 -3.99,-10.68 -1.33,-3.56 -2.66,-7.13 -3.98,-10.71 -5.16,0.01 -10.31,0.01 -15.4,0.02 2.66,5.55 5.32,11.1 7.97,16.62zm-38.82 -16.59c0,9.2 0,18.4 0,27.59 0,9.19 0,18.39 0,27.58 9.47,-0.18 18.94,-0.36 28.41,-0.47 0,-3.52 0,-7.06 0,-10.6 -4.49,0.04 -8.97,0.08 -13.4,0.14 0,-3.98 0,-7.97 0,-11.96 2.99,-0.03 5.98,-0.06 8.97,-0.08 0,-3.24 0,-6.5 0,-9.75 -2.99,0.01 -5.98,0.03 -8.97,0.05 0,-3.95 0,-7.91 0,-11.86 4.43,-0.02 8.91,-0.04 13.4,-0.05 0,-3.54 0,-7.08 0,-10.62 -9.47,0 -18.94,0.02 -28.41,0.03zm-30.08 0.06c0,9.29 0,18.6 0,27.89 0,9.3 0,18.6 0,27.89 8.7,-0.23 17.39,-0.43 26.14,-0.6 0,-3.56 0,-7.14 0,-10.71 -3.71,0.06 -7.42,0.12 -11.13,0.18 0,-7.45 0,-14.9 0,-22.34 0,-7.44 0,-14.89 0,-22.35 -5.04,0.02 -10.02,0.02 -15.01,0.04zm-30.02 0.06c0,9.43 0,18.87 0,28.29 0,9.43 0,18.87 0,28.3 8.7,-0.3 17.39,-0.54 26.09,-0.76 0,-3.61 0,-7.22 0,-10.84 -3.71,0.08 -7.42,0.16 -11.13,0.24 0,-7.54 0,-15.09 0,-22.63 0,-7.54 0,-15.09 0,-22.64 -4.99,0.02 -9.97,0.02 -14.96,0.04zm-41.43 6.38c0,4 0,7.99 0,11.99 0,1.42 0.33,2.71 1,3.9 0.66,1.19 1.52,2.3 2.66,3.22 5.51,4.48 11.12,8.8 16.67,13.25 0.82,0.65 1.16,1.49 1.16,2.34 0,1.28 0,2.55 0,3.82 0,0.84 -0.44,1.29 -1.38,1.31 -1.28,0.04 -2.49,0.06 -3.71,0.1 -0.95,0.03 -1.39,-0.38 -1.39,-1.23 0,-2.15 0,-4.32 0,-6.48 -5.04,0.14 -10.02,0.28 -15.01,0.43 0,4.28 0,8.55 0,12.82 0,1.78 0.67,3.24 1.94,4.39 1.28,1.15 2.88,1.67 4.76,1.59 7.7,-0.32 15.4,-0.59 23.1,-0.85 1.88,-0.06 3.49,-0.7 4.76,-1.91 1.28,-1.22 1.94,-2.7 1.94,-4.45 0,-3.87 0,-7.75 0,-11.64 0,-1.38 -0.33,-2.65 -0.99,-3.81 -0.67,-1.16 -1.52,-2.25 -2.66,-3.15 -5.56,-4.44 -11.15,-8.79 -16.67,-13.26 -0.79,-0.64 -1.17,-1.44 -1.17,-2.35 0,-1.32 0,-2.62 0,-3.93 0,-0.85 0.44,-1.28 1.39,-1.29 1.22,-0.01 2.43,-0.02 3.71,-0.03 0.94,-0.01 1.38,0.41 1.38,1.26 0,2.15 0,4.31 0,6.46 4.99,-0.07 9.97,-0.14 15.01,-0.2 0,-4.17 0,-8.36 0,-12.54 0,-1.74 -0.66,-3.19 -1.94,-4.36 -1.27,-1.18 -2.88,-1.75 -4.76,-1.75 -7.7,0.02 -15.4,0.03 -23.1,0.06 -1.88,0.01 -3.49,0.6 -4.76,1.81 -1.28,1.2 -1.94,2.7 -1.94,4.48zm-19.88 -6.21c0,9.8 0,19.6 0,29.4 0,9.79 0,19.59 0,29.38 4.98,-0.23 9.97,-0.43 14.95,-0.64 0,-9.69 0,-19.39 0,-29.09 0,-9.69 0,-19.4 0,-29.1 -4.98,0.02 -9.97,0.04 -14.95,0.05z"/>
  </g>
 </g>
</svg>
