<?xml version="1.0" encoding="UTF-8"?>
<!DOCTYPE svg PUBLIC "-//W3C//DTD SVG 1.1//EN" "http://www.w3.org/Graphics/SVG/1.1/DTD/svg11.dtd">
<!-- Creator: CorelDRAW -->
<svg xmlns="http://www.w3.org/2000/svg" xml:space="preserve" width="207px" height="25px" version="1.1" style="shape-rendering:geometricPrecision; text-rendering:geometricPrecision; image-rendering:optimizeQuality; fill-rule:evenodd; clip-rule:evenodd"
viewBox="0 0 207 25.01"
 xmlns:xlink="http://www.w3.org/1999/xlink"
 xmlns:xodm="http://www.corel.com/coreldraw/odm/2003">
 <defs>
  <style type="text/css">
   <![CDATA[
    .fil0 {fill:#FFCC29;fill-rule:nonzero}
   ]]>
  </style>
 </defs>
 <g id="Camada_x0020_1">
  <metadata id="CorelCorpID_0Corel-Layer"/>
  <polygon class="fil0" points="0,0.34 5.67,0.34 7.99,13.38 9.8,0.34 13.63,0.34 15.43,13.38 17.75,0.34 23.43,0.34 17.98,25.36 13.41,25.36 11.71,14.12 10.02,25.36 5.45,25.36 "/>
  <polygon id="_1" class="fil0" points="24.72,25.36 24.72,2.18 30.32,2.18 30.32,25.36 "/>
  <path id="_2" class="fil0" d="M40.19 9.81l0 -2.62c0,-0.34 -0.17,-0.51 -0.52,-0.51l-1.4 0c-0.34,0 -0.51,0.17 -0.51,0.51l0 1.59c0,0.37 0.14,0.68 0.44,0.96l6.23 5.48c0.41,0.4 0.75,0.83 0.99,1.31 0.25,0.48 0.37,1 0.37,1.57l0 4.75c0,0.71 -0.24,1.31 -0.72,1.79 -0.48,0.48 -1.07,0.72 -1.79,0.72l-8.62 0c-0.71,0 -1.31,-0.24 -1.78,-0.72 -0.48,-0.48 -0.72,-1.08 -0.72,-1.79l0 -5.12 5.6 0 0 2.61c0,0.35 0.17,0.52 0.51,0.52l1.4 0c0.35,0 0.52,-0.17 0.52,-0.52l0 -1.54c0,-0.35 -0.15,-0.67 -0.44,-0.96l-6.23 -5.49c-0.42,-0.39 -0.75,-0.83 -0.99,-1.31 -0.25,-0.48 -0.37,-1 -0.37,-1.56l0 -4.79c0,-0.71 0.24,-1.31 0.72,-1.79 0.47,-0.48 1.07,-0.72 1.78,-0.72l8.62 0c0.72,0 1.31,0.24 1.79,0.72 0.48,0.48 0.72,1.08 0.72,1.79l0 5.12 -5.6 0z"/>
  <polygon id="_3" class="fil0" points="57.39,25.36 47.63,25.36 47.63,2.18 53.23,2.18 53.23,20.86 57.39,20.86 "/>
  <polygon id="_4" class="fil0" points="68.63,25.36 58.87,25.36 58.87,2.18 64.47,2.18 64.47,20.86 68.63,20.86 "/>
  <polygon id="_5" class="fil0" points="70.1,25.36 70.1,2.18 80.71,2.18 80.71,6.68 75.7,6.68 75.7,11.69 79.06,11.69 79.06,15.81 75.7,15.81 75.7,20.86 80.71,20.86 80.71,25.36 "/>
  <polygon id="_6" class="fil0" points="87.6,25.36 87.6,16.29 81.64,2.18 87.38,2.18 90.37,11.28 93.35,2.18 99.1,2.18 93.13,16.29 93.13,25.36 "/>
  <polygon id="_7" class="fil0" points="112.91,0.34 112.91,4.84 109.26,4.84 109.26,25.36 103.66,25.36 103.66,4.84 100.02,4.84 100.02,0.34 "/>
  <path id="_8" class="fil0" d="M114.38 25.36l0 -23.18 11.09 0c0.72,0 1.31,0.24 1.79,0.72 0.48,0.48 0.72,1.08 0.72,1.79l0 8.36c0,0.81 -0.22,1.4 -0.65,1.75 -0.43,0.36 -0.96,0.58 -1.6,0.68l2.8 9.88 -5.71 0 -1.8 -9.8 -1.04 0 0 9.8 -5.6 0zm5.6 -14.3l1.88 0c0.35,0 0.52,-0.17 0.52,-0.51l0 -3.36c0,-0.34 -0.17,-0.51 -0.52,-0.51l-1.88 0 0 4.38z"/>
  <path id="_9" class="fil0" d="M129.27 25.36l5.71 -23.18 5.04 0 5.71 23.18 -5.82 0 -0.62 -4.13 -3.61 0 -0.63 4.13 -5.78 0zm7.11 -8.44l2.25 0 -1.11 -7.41 -1.14 7.41z"/>
  <path id="_10" class="fil0" d="M158.96 13.68c0.52,0.46 0.92,1.02 1.22,1.65 0.29,0.64 0.44,1.33 0.44,2.07l0 5.45c0,0.71 -0.24,1.31 -0.72,1.79 -0.48,0.48 -1.07,0.72 -1.79,0.72l-11.09 0 0 -23.18 10.87 0c0.69,0 1.28,0.25 1.77,0.74 0.49,0.49 0.74,1.08 0.74,1.77l0 5.49c0,0.69 -0.13,1.32 -0.39,1.91 -0.26,0.59 -0.61,1.12 -1.05,1.59zm-4.68 -2.03c0.35,0 0.52,-0.17 0.52,-0.52l0 -3.94c0,-0.34 -0.17,-0.51 -0.52,-0.51l-1.66 0 0 4.97 1.66 0zm0.22 9.21c0.35,0 0.52,-0.17 0.52,-0.52l0 -3.9c0,-0.34 -0.17,-0.52 -0.52,-0.52l-1.88 0 0 4.94 1.88 0z"/>
  <path id="_11" class="fil0" d="M176.05 2.18l0 20.63c0,0.72 -0.24,1.32 -0.72,1.81 -0.47,0.49 -1.07,0.74 -1.78,0.74l-8.59 0c-0.71,0 -1.3,-0.25 -1.78,-0.74 -0.48,-0.49 -0.72,-1.09 -0.72,-1.81l0 -20.63 5.6 0 0 18.13c0,0.32 0.08,0.48 0.24,0.5 0.16,0.01 0.25,0.01 0.27,0.01l1.37 0c0.02,0 0.11,0 0.27,-0.01 0.16,-0.02 0.24,-0.18 0.24,-0.5l0 -18.13 5.6 0z"/>
  <path id="_12" class="fil0" d="M185.93 11.91l0 -4.72c0,-0.34 -0.18,-0.51 -0.52,-0.51l-1.4 0c-0.34,0 -0.52,0.17 -0.52,0.51l0 13.15c0,0.35 0.18,0.52 0.52,0.52l1.4 0c0.34,0 0.52,-0.17 0.52,-0.52l0 -4.67 5.59 0 0 7.18c0,0.71 -0.23,1.31 -0.71,1.79 -0.48,0.48 -1.08,0.72 -1.79,0.72l-8.62 0c-0.71,0 -1.31,-0.24 -1.79,-0.72 -0.48,-0.48 -0.72,-1.08 -0.72,-1.79l0 -18.16c0,-0.71 0.24,-1.31 0.72,-1.79 0.48,-0.48 1.08,-0.72 1.79,-0.72l8.62 0c0.71,0 1.31,0.24 1.79,0.72 0.48,0.48 0.71,1.08 0.71,1.79l0 7.22 -5.59 0z"/>
  <path id="_13" class="fil0" d="M204.49 2.18c0.71,0 1.31,0.24 1.79,0.72 0.48,0.48 0.72,1.08 0.72,1.79l0 18.16c0,0.71 -0.24,1.31 -0.72,1.79 -0.48,0.48 -1.08,0.72 -1.79,0.72l-8.62 0c-0.71,0 -1.31,-0.24 -1.78,-0.72 -0.48,-0.48 -0.72,-1.08 -0.72,-1.79l0 -18.16c0,-0.71 0.24,-1.31 0.72,-1.79 0.47,-0.48 1.07,-0.72 1.78,-0.72l8.62 0zm-3.61 18.68c0.35,0 0.52,-0.17 0.52,-0.52l0 -13.15c0,-0.34 -0.17,-0.51 -0.52,-0.51l-1.4 0c-0.34,0 -0.51,0.17 -0.51,0.51l0 13.12c0,0.37 0.17,0.55 0.51,0.55l1.4 0z"/>
 </g>
</svg>
